<?xml version="1.0" encoding="UTF-8" standalone="no"?>
<!-- Created with Inkscape (http://www.inkscape.org/) -->

<svg
   width="60"
   height="90"
   viewBox="0 0 60 90"
   version="1.1"
   id="svg1"
   xmlns="http://www.w3.org/2000/svg"
   xmlns:svg="http://www.w3.org/2000/svg">
  <defs
     id="defs1" />
  <g
     id="layer1">
    <path
       style="fill:#f19718;stroke:none;stroke-width:30;fill-opacity:1"
       d="M 60,0 V 80 H 40 L 30,90 20,80 H 0 V 0"
       id="path1" />
    <path
       id="path2"
       style="fill:#e6e6e6;stroke:none;stroke-width:40.1348"
       d="M 30,10 A 19.09091,9.375 0 0 0 11.528764,17.029419 20,3.75 0 0 0 10,18.4375 a 20,3.75 0 0 0 20,3.75 20,3.75 0 0 0 20,-3.75 A 20,3.75 0 0 0 48.467685,17.000123 19.09091,9.375 0 0 0 30,10 Z M 24.545454,22.976685 V 28.75 h 3.636364 V 70 h 3.636364 V 28.75 h 3.636364 V 22.976685 A 20,3.75 0 0 1 30,23.125 20,3.75 0 0 1 24.545454,22.976685 Z" />
  </g>
</svg>
