<svg width="40" height="60" xmlns="http://www.w3.org/2000/svg">
  <path d="M 10.957031 0 C 9.9962905 0 9.1951813 0.06763594 8.5546875 0.203125 C 7.9141937 0.32629688 7.3908422 0.53641875 6.984375 0.83203125 C 6.590225 1.1276437 6.2875172 1.5209844 6.078125 2.0136719 C 5.88105 2.5063594 5.7457781 3.1222969 5.671875 3.8613281 C 5.5979719 4.6003594 5.5605469 5.4815797 5.5605469 6.5039062 C 5.5605469 7.5262328 5.5979719 8.4055 5.671875 9.1445312 C 5.7457781 9.8835625 5.88105 10.4995 6.078125 10.992188 C 6.2875172 11.484875 6.590225 11.880169 6.984375 12.175781 C 7.3908422 12.471394 7.9141937 12.686776 8.5546875 12.822266 C 9.1951813 12.945438 9.9962905 13.007812 10.957031 13.007812 C 11.326547 13.007812 11.707413 12.995336 12.101562 12.970703 C 12.50803 12.946066 12.901371 12.908642 13.283203 12.859375 C 13.665036 12.822421 13.992693 12.779735 14.263672 12.730469 L 14.263672 10.365234 C 13.91879 10.414501 13.505761 10.457187 13.025391 10.494141 C 12.54502 10.518774 12.114255 10.53125 11.732422 10.53125 C 11.165832 10.53125 10.697641 10.513516 10.328125 10.476562 C 9.9709262 10.427293 9.6879077 10.334707 9.4785156 10.199219 C 9.2691234 10.051412 9.1141625 9.8288156 9.015625 9.5332031 C 8.9170872 9.2375906 8.8494513 8.84425 8.8125 8.3515625 C 8.7878654 7.858875 8.7753906 7.2429374 8.7753906 6.5039062 C 8.7753906 5.7525578 8.7878654 5.1366203 8.8125 4.65625 C 8.8494516 4.1635625 8.9170875 3.7754828 9.015625 3.4921875 C 9.1141625 3.1965751 9.2691234 2.9739781 9.4785156 2.8261719 C 9.6879077 2.6783656 9.9709262 2.5857797 10.328125 2.5488281 C 10.697641 2.4995595 11.165832 2.4765625 11.732422 2.4765625 C 11.892546 2.4765625 12.090192 2.4818233 12.324219 2.4941406 C 12.558245 2.4941406 12.828789 2.5118768 13.136719 2.5488281 C 13.456966 2.5734628 13.80762 2.6056268 14.189453 2.6425781 L 14.189453 0.33203125 C 13.930792 0.25812812 13.617563 0.19770625 13.248047 0.1484375 C 12.878531 0.099168749 12.495713 0.061743744 12.101562 0.037109375 C 11.707413 0.012474997 11.326547 1.4297902e-18 10.957031 0 z M 21.560547 0 C 20.488952 0 19.609685 0.06763594 18.919922 0.203125 C 18.242477 0.32629688 17.711911 0.53641875 17.330078 0.83203125 C 16.948245 1.1153266 16.665227 1.5086672 16.480469 2.0136719 C 16.308026 2.5063594 16.197704 3.1222969 16.148438 3.8613281 C 16.111484 4.6003594 16.091797 5.4815797 16.091797 6.5039062 C 16.091797 7.5262328 16.111484 8.4055 16.148438 9.1445312 C 16.197706 9.8835625 16.308028 10.506714 16.480469 11.011719 C 16.665227 11.504406 16.948245 11.897747 17.330078 12.193359 C 17.711911 12.476654 18.242477 12.686776 18.919922 12.822266 C 19.609685 12.945438 20.488952 13.007812 21.560547 13.007812 C 22.619825 13.007813 23.48857 12.945438 24.166016 12.822266 C 24.855778 12.686776 25.398819 12.476654 25.792969 12.193359 C 26.187119 11.897747 26.470138 11.504406 26.642578 11.011719 C 26.815021 10.506714 26.925343 9.8835625 26.974609 9.1445312 C 27.023876 8.4055 27.048828 7.5262328 27.048828 6.5039062 C 27.048828 5.4815797 27.023876 4.6003594 26.974609 3.8613281 C 26.92534 3.1222969 26.815019 2.5063594 26.642578 2.0136719 C 26.470138 1.5086672 26.187119 1.1153266 25.792969 0.83203125 C 25.398819 0.53641875 24.855778 0.32629688 24.166016 0.203125 C 23.48857 0.06763594 22.619825 0 21.560547 0 z M 0 0.1484375 L 0 12.859375 L 3.2148438 12.859375 L 3.2148438 0.1484375 L 0 0.1484375 z M 29.376953 0.1484375 L 29.376953 12.859375 L 32.460938 12.859375 L 32.460938 5.4140625 L 32.554688 5.4140625 L 36.988281 12.859375 L 40 12.859375 L 40 0.1484375 L 36.914062 0.1484375 L 36.914062 6.9648438 L 36.822266 6.9648438 L 32.683594 0.1484375 L 29.376953 0.1484375 z M 21.560547 2.4765625 C 22.003966 2.4765625 22.361834 2.4942987 22.632812 2.53125 C 22.916108 2.5558844 23.138705 2.6359953 23.298828 2.7714844 C 23.458952 2.8946563 23.574534 3.0975641 23.648438 3.3808594 C 23.722337 3.6641547 23.765024 4.0594484 23.777344 4.5644531 C 23.801977 5.0694578 23.814453 5.7156062 23.814453 6.5039062 C 23.814453 7.2922062 23.801977 7.9383547 23.777344 8.4433594 C 23.765026 8.9483641 23.72234 9.3417047 23.648438 9.625 C 23.574534 9.9082952 23.458952 10.118417 23.298828 10.253906 C 23.138705 10.377076 22.916108 10.457187 22.632812 10.494141 C 22.361834 10.518774 22.003966 10.53125 21.560547 10.53125 C 21.129445 10.53125 20.773529 10.518774 20.490234 10.494141 C 20.206939 10.457189 19.984343 10.377078 19.824219 10.253906 C 19.664096 10.118417 19.54656 9.9082952 19.472656 9.625 C 19.398752 9.3417047 19.350805 8.9483641 19.326172 8.4433594 C 19.313852 7.9383547 19.306641 7.2922062 19.306641 6.5039062 C 19.306641 5.7156062 19.313852 5.0694578 19.326172 4.5644531 C 19.350806 4.0594484 19.398753 3.6641547 19.472656 3.3808594 C 19.54656 3.0975641 19.664096 2.8946563 19.824219 2.7714844 C 19.984343 2.6359956 20.206939 2.5558846 20.490234 2.53125 C 20.773529 2.4942987 21.129445 2.4765625 21.560547 2.4765625 z M 19.814453 20 C 18.165353 20.016297 16.49048 20.239013 14.824219 20.685547 C 9.4937449 22.113672 5.2449243 25.57148 2.6855469 30.005859 C 0.12616952 34.437894 -0.74179824 39.844135 0.68554688 45.173828 C 1.8339855 49.458208 4.2921843 53.045309 7.515625 55.617188 C 8.8601575 56.689843 10.34453 57.592968 11.917969 58.289062 C 15.946879 60.071877 20.588674 60.543353 25.173828 59.314453 C 30.479301 57.892578 34.713278 54.460553 37.277344 50.056641 L 37.314453 49.998047 C 39.873831 45.56523 40.743361 40.156254 39.314453 34.824219 C 37.893358 29.518744 34.462504 25.284768 30.058594 22.720703 L 29.998047 22.683594 C 26.950485 20.924021 23.442473 19.964146 19.814453 20 z M 19.833984 22.123047 C 23.077318 22.09039 26.213473 22.947948 28.935547 24.519531 L 28.988281 24.548828 C 32.92266 26.837113 35.989061 30.623825 37.261719 35.373047 C 38.539063 40.141021 37.764455 44.974996 35.478516 48.933594 L 35.449219 48.988281 C 33.161716 52.923441 29.375005 55.989061 24.625 57.261719 C 20.607027 58.338283 16.543363 57.958205 12.994141 56.443359 A 18.00652 18.00652 0 0 1 9.2070312 54.248047 C 6.1492158 51.933981 3.8085948 48.619535 2.7382812 44.625 C 1.460155 39.854683 2.2347635 35.020708 4.5214844 31.060547 C 6.8058616 27.102731 10.604293 24.014455 15.373047 22.736328 C 16.863283 22.337158 18.359742 22.137891 19.833984 22.123047 z M 15.429688 30.355469 C 14.753026 30.355469 14.075782 30.719921 13.572266 31.449219 C 12.598828 32.858594 12.598828 35.115233 13.572266 36.525391 C 14.579298 37.983985 16.279295 37.983204 17.287109 36.525391 C 18.260547 35.115233 18.260547 32.858594 17.287109 31.449219 C 16.783202 30.719921 16.106349 30.355469 15.429688 30.355469 z M 24.861328 30.355469 C 24.184667 30.355469 23.507813 30.719921 23.003906 31.449219 C 22.030467 32.858594 22.030467 35.115233 23.003906 36.525391 C 24.01172 37.983204 25.711718 37.983985 26.71875 36.525391 C 27.692969 35.115233 27.692969 32.858594 26.71875 31.449219 C 26.215234 30.719921 25.537989 30.355469 24.861328 30.355469 z M 19.974609 42.984375 C 17.186325 42.971875 14.396487 43.830467 12.037109 45.585938 C 10.977733 46.375001 10.003125 47.345702 9.15625 48.498047 A 0.24359422 0.24359422 0 0 0 9.1875 48.818359 L 9.9414062 49.566406 A 0.24187548 0.24187548 0 0 0 10.283203 49.566406 C 10.444923 49.401561 10.600781 49.242187 10.773438 49.085938 C 13.078127 46.998436 16.513277 45.984763 19.964844 46.001953 C 23.42969 46.01914 26.904685 47.076561 29.265625 49.128906 C 29.433594 49.274219 29.591406 49.422656 29.75 49.578125 A 0.24375048 0.24375048 0 0 0 30.09375 49.578125 L 30.816406 48.857422 C 30.904686 48.769922 30.911717 48.630466 30.835938 48.535156 C 29.976561 47.382811 28.985158 46.407422 27.902344 45.611328 C 25.547654 43.881639 22.76133 42.997655 19.974609 42.984375 z" fill="#fff"/>
</svg>
