<svg width="40" height="60" xmlns="http://www.w3.org/2000/svg">
  <path d="m 19.137764,47.853371 q -1.470874,0 -3.448946,-0.152159 -1.927353,-0.15216 -4.006864,-0.405759 -2.0287924,-0.253599 -3.8039854,-0.557917 v -6.339975 q 1.9273524,0.202879 3.7025454,0.355038 1.825913,0.15216 3.398227,0.253599 1.572313,0.05072 2.48527,0.05072 2.688149,0 4.209743,-0.304319 1.572314,-0.355038 2.333111,-1.267995 0.811517,-0.963676 1.065116,-2.738869 0.304318,-1.775193 0.304318,-4.716941 h -0.304318 q -0.405759,0.456478 -1.267995,1.014396 -0.811517,0.557918 -2.383831,1.014396 -1.572314,0.405758 -4.209743,0.405758 -2.840309,0 -4.970541,-0.405758 Q 10.16036,33.651827 8.7402052,32.586712 7.3200508,31.470876 6.5592539,29.442084 5.8491767,27.413292 5.8491767,24.167225 q 0,-3.246067 0.5579178,-5.528458 0.6086376,-2.333111 2.0795117,-3.753265 1.4708742,-1.420155 4.1083038,-2.079512 2.688149,-0.659357 6.897893,-0.659357 4.006864,0 6.695013,0.456478 2.688149,0.405758 4.311183,1.673753 1.673753,1.217275 2.48527,3.753265 0.659358,2.079512 0.912957,4.970541 0.253599,2.891028 0.253599,6.897892 0,2.992468 -0.20288,5.376299 -0.152159,2.383831 -0.557917,4.209743 -0.405759,1.825913 -1.115836,3.195348 -1.014396,1.927352 -2.738869,3.093907 -1.724473,1.115836 -4.260463,1.623034 -2.53599,0.456478 -6.137096,0.456478 z m 0.760797,-20.08504 q 1.825913,0 2.891029,-0.202879 1.115835,-0.20288 1.623033,-0.659358 0.507198,-0.507198 0.659358,-1.217275 0.152159,-0.760797 0.152159,-1.825913 0,-1.825913 -0.304319,-2.840309 -0.253599,-1.014396 -0.862236,-1.470874 -0.608638,-0.507198 -1.623034,-0.608637 -1.014396,-0.10144 -2.53599,-0.10144 -1.673753,0 -2.789589,0.15216 -1.115836,0.101439 -1.724473,0.557917 -0.608638,0.405759 -0.862237,1.318715 -0.202879,0.862237 -0.202879,2.333111 0,1.572314 0.202879,2.53599 0.253599,0.912956 0.862237,1.369434 0.608637,0.405759 1.673753,0.557918 1.115836,0.10144 2.840309,0.10144 z" fill="#fff"/>
</svg>
