<svg width="40" height="60" xmlns="http://www.w3.org/2000/svg">
  <path d="m 20.507199,47.853371 q -3.601106,0 -6.137096,-0.355038 Q 11.834113,47.143294 10.10964,46.078178 8.4358867,45.013062 7.3707709,42.832111 6.8635729,41.665556 6.5085343,39.941083 6.1534957,38.16589 6.0013363,35.731339 5.8491769,33.246069 5.8491769,30.101441 q 0,-2.637429 0.1014396,-4.767661 0.1521594,-2.180951 0.4564782,-3.905424 0.3550386,-1.775193 0.9129564,-3.093908 0.9129564,-2.38383 2.5867097,-3.702545 1.7244732,-1.318715 4.4126222,-1.876633 2.68815,-0.608637 6.542854,-0.608637 1.470875,0 3.347507,0.152159 1.927353,0.152159 4.006864,0.405758 2.079512,0.20288 3.905425,0.557918 v 6.339975 q -1.825913,-0.202879 -3.702546,-0.355039 -1.825912,-0.152159 -3.347506,-0.202879 -1.521594,-0.101439 -2.53599,-0.101439 -2.63743,0 -4.209744,0.355038 -1.572313,0.304319 -2.38383,1.267995 -0.760797,0.912957 -1.014396,2.68815 -0.253599,1.775193 -0.253599,4.716941 h 0.304319 q 0.405758,-0.456478 1.217275,-1.014396 0.811517,-0.557918 2.38383,-0.963676 1.623034,-0.456478 4.260464,-0.456478 2.789589,0 4.91982,0.405758 2.130232,0.405758 3.550386,1.521594 1.420154,1.065116 2.130232,3.093908 0.710077,2.028792 0.710077,5.274859 0,3.246067 -0.557918,5.579178 -0.557918,2.282391 -2.079512,3.702545 -1.470874,1.420154 -4.108303,2.079512 -2.63743,0.659357 -6.897893,0.659357 z M 20.10144,41.158358 q 1.724474,0 2.789589,-0.10144 1.115836,-0.152159 1.724474,-0.557918 0.608637,-0.456478 0.862236,-1.318714 0.253599,-0.912957 0.253599,-2.383831 0,-1.572314 -0.253599,-2.48527 -0.253599,-0.963676 -0.862236,-1.369435 -0.557918,-0.456478 -1.673754,-0.557918 -1.115835,-0.152159 -2.840309,-0.152159 -1.825912,0 -2.891028,0.202879 -1.065116,0.202879 -1.623034,0.710077 -0.507198,0.456479 -0.659357,1.217276 -0.152159,0.710077 -0.152159,1.775193 0,1.825912 0.253599,2.840308 0.304318,1.014396 0.912956,1.521594 0.608638,0.456478 1.623033,0.557918 1.014396,0.10144 2.53599,0.10144 z" fill="#fff"/>
</svg>
