<svg width="40" height="60" xmlns="http://www.w3.org/2000/svg">
  <path d="m 18.554486,47.65049 q -1.673753,0 -3.702545,-0.152159 -2.028792,-0.10144 -4.006864,-0.304319 -1.9780724,-0.253599 -3.601106,-0.608637 v -6.289256 q 1.775193,0.15216 3.651826,0.304319 1.927352,0.10144 3.651825,0.202879 1.724473,0.05072 2.992468,0.05072 2.028792,0 3.246067,-0.152159 1.217276,-0.202879 1.876633,-0.659358 0.710077,-0.456478 0.963676,-1.318714 0.253599,-0.912957 0.253599,-2.282391 0,-1.470874 -0.304319,-2.333111 -0.253599,-0.912956 -0.963676,-1.318715 -0.710077,-0.456478 -1.978072,-0.608637 -1.267995,-0.15216 -3.246067,-0.15216 -1.318715,0 -3.043188,0.10144 -1.724473,0.05072 -3.448946,0.202879 -1.7244736,0.10144 -3.2460676,0.253599 V 12.34951 H 30.16932 v 6.847173 H 15.359139 v 6.542854 q 0.862236,-0.101439 1.978072,-0.202879 1.166555,-0.10144 2.333111,-0.152159 1.166555,-0.05072 2.130231,-0.05072 3.296787,0 5.427019,0.710077 2.130231,0.710077 3.347507,2.079512 1.217275,1.318714 1.673753,3.246067 0.507198,1.927352 0.507198,4.463342 0,3.093908 -0.608638,5.325579 -0.608637,2.231671 -2.180951,3.702545 -1.521594,1.420155 -4.311183,2.130232 -2.738869,0.659357 -7.100772,0.659357 z" fill="#fff"/>
</svg>
