<svg width="40" height="60" xmlns="http://www.w3.org/2000/svg">
  <path d="M 35.900391 0 C 31.671232 7.7999844 29.253242 10.79961 22.607422 11.099609 L 22.607422 9.9003906 L 23.199219 9.9003906 L 23.199219 9 L 16.701172 9 L 16.701172 9.9003906 L 16.996094 9.9003906 L 16.996094 10.199219 L 16.40625 10.199219 L 16.40625 8.6992188 L 12.667969 8.6992188 C 11.793546 8.6992188 11.089844 9.4355121 11.089844 10.349609 L 11.089844 13.650391 C 11.089844 14.564488 11.793546 15.300781 12.667969 15.300781 L 16.40625 15.300781 L 16.40625 13.800781 L 16.996094 13.800781 L 16.996094 14.099609 L 16.701172 14.099609 L 16.701172 15 L 17.587891 15 L 17.587891 21 L 16.701172 21 L 16.701172 21.900391 L 17.291016 21.900391 L 17.291016 23.099609 C 10.645194 22.79961 8.2291561 19.799984 4 12 L 4 36 C 8.2291561 28.200016 10.645194 25.20039 17.291016 24.900391 L 17.291016 26.099609 L 16.701172 26.099609 L 16.701172 27 L 17.587891 27 L 17.587891 33 L 16.701172 33 L 16.701172 33.900391 L 16.996094 33.900391 L 16.996094 34.199219 L 16.40625 34.199219 L 16.40625 32.699219 L 12.667969 32.699219 C 11.793546 32.699219 11.089844 33.435512 11.089844 34.349609 L 11.089844 37.650391 C 11.089844 38.564488 11.793546 39.300781 12.667969 39.300781 L 16.40625 39.300781 L 16.40625 37.800781 L 16.996094 37.800781 L 16.996094 38.099609 L 16.701172 38.099609 L 16.701172 39 L 17.587891 39 L 17.587891 45 L 16.701172 45 L 16.701172 45.900391 L 17.291016 45.900391 L 17.291016 47.099609 C 10.645194 46.79961 8.2291561 43.799984 4 36 L 4 60 C 8.2291561 52.200016 10.645194 49.20039 17.291016 48.900391 L 17.291016 50.099609 L 16.701172 50.099609 L 16.701172 51 L 17.587891 51 L 17.587891 60 L 22.3125 60 L 22.3125 51 L 23.199219 51 L 23.199219 50.099609 L 22.904297 50.099609 L 22.904297 49.800781 L 23.494141 49.800781 L 23.494141 51.300781 L 27.232422 51.300781 C 28.106841 51.300781 28.810547 50.564488 28.810547 49.650391 L 28.810547 46.349609 C 28.810547 45.435512 28.106841 44.699219 27.232422 44.699219 L 23.494141 44.699219 L 23.494141 46.199219 L 22.904297 46.199219 L 22.904297 45.900391 L 23.199219 45.900391 L 23.199219 45 L 22.3125 45 L 22.3125 39 L 23.199219 39 L 23.199219 38.099609 L 22.607422 38.099609 L 22.607422 36.900391 C 29.253242 37.20039 31.671232 40.200016 35.900391 48 L 35.900391 24 C 31.671232 31.799984 29.253242 34.79961 22.607422 35.099609 L 22.607422 33.900391 L 23.199219 33.900391 L 23.199219 33 L 22.3125 33 L 22.3125 27 L 23.199219 27 L 23.199219 26.099609 L 22.904297 26.099609 L 22.904297 25.800781 L 23.494141 25.800781 L 23.494141 27.300781 L 27.232422 27.300781 C 28.106841 27.300781 28.810547 26.564488 28.810547 25.650391 L 28.810547 22.349609 C 28.810547 21.435512 28.106841 20.699219 27.232422 20.699219 L 23.494141 20.699219 L 23.494141 22.199219 L 22.904297 22.199219 L 22.904297 21.900391 L 23.199219 21.900391 L 23.199219 21 L 22.3125 21 L 22.3125 15 L 23.199219 15 L 23.199219 14.099609 L 22.607422 14.099609 L 22.607422 12.900391 C 29.253242 13.20039 31.671232 16.200016 35.900391 24 L 35.900391 0 z" fill="#fff"/>
</svg>
