<svg width="40" height="60" xmlns="http://www.w3.org/2000/svg">
  <path d="M 36,0 C 31.677538,7.7999844 29.207535,10.8 22.415094,11.1 V 9.9 h 0.603774 V 9 h -6.037736 v 0.6 h -2.334907 c -0.546157,0 -0.985847,0.535202 -0.985847,1.2 v 2.4 c 0,0.664798 0.43969,1.2 0.985847,1.2 h 2.334907 V 15 h 1.207548 v 6 h -1.207548 v 0.9 h 0.603774 v 1.2 C 10.792465,22.8 8.3224594,19.799984 4,12 V 36 C 8.3224594,28.200016 10.792465,25.2 17.584906,24.9 v 1.2 H 16.981132 V 27 h 1.207548 v 6 h -1.207548 v 0.6 h -2.334907 c -0.546157,0 -0.985847,0.535202 -0.985847,1.2 v 2.4 c 0,0.664798 0.43969,1.2 0.985847,1.2 h 2.334907 V 39 h 1.207548 v 6 h -1.207548 v 0.9 h 0.603774 v 1.2 C 10.792465,46.8 8.3224594,43.799984 4,36 V 60 C 8.3224594,52.200016 10.792465,49.2 17.584906,48.9 v 1.2 H 16.981132 V 51 h 1.222879 v 9 h 3.62264 v -9 h 1.192217 v -0.6 h 2.334907 c 0.546153,0 0.985847,-0.535202 0.985847,-1.2 v -2.4 c 0,-0.664798 -0.439694,-1.2 -0.985847,-1.2 H 23.018868 V 45 H 21.81132 v -6 h 1.207548 V 38.1 H 22.415094 V 36.9 C 29.207535,37.2 31.677538,40.200016 36,48 V 24 c -4.322462,7.799984 -6.792465,10.8 -13.584906,11.1 v -1.2 h 0.603774 V 33 H 21.81132 v -6 h 1.207548 v -0.6 h 2.334907 c 0.546153,0 0.985847,-0.535202 0.985847,-1.2 v -2.4 c 0,-0.664798 -0.439694,-1.2 -0.985847,-1.2 H 23.018868 V 21 H 21.81132 v -6 h 1.207548 V 14.1 H 22.415094 V 12.9 C 29.207535,13.2 31.677538,16.200016 36,24 Z" fill="#fff"/>
</svg>
