<?xml version="1.0" encoding="UTF-8" standalone="no"?>
<svg
   width="40"
   height="60"
   version="1.1"
   id="svg1"
   sodipodi:docname="fedsig-mod.svg"
   xml:space="preserve"
   inkscape:version="1.3 (0e150ed6c4, 2023-07-21)"
   xmlns:inkscape="http://www.inkscape.org/namespaces/inkscape"
   xmlns:sodipodi="http://sodipodi.sourceforge.net/DTD/sodipodi-0.dtd"
   xmlns="http://www.w3.org/2000/svg"
   xmlns:svg="http://www.w3.org/2000/svg"><defs
     id="defs1" /><sodipodi:namedview
     id="namedview1"
     pagecolor="#ffffff"
     bordercolor="#000000"
     borderopacity="0.25"
     inkscape:showpageshadow="2"
     inkscape:pageopacity="0.0"
     inkscape:pagecheckerboard="0"
     inkscape:deskcolor="#d1d1d1"
     showgrid="true"
     inkscape:zoom="4.2131779"
     inkscape:cx="-9.2566706"
     inkscape:cy="10.562098"
     inkscape:window-width="1536"
     inkscape:window-height="953"
     inkscape:window-x="-8"
     inkscape:window-y="-8"
     inkscape:window-maximized="1"
     inkscape:current-layer="svg1"><inkscape:grid
       id="grid1"
       units="px"
       originx="0"
       originy="0"
       spacingx="1"
       spacingy="1"
       empcolor="#0099e5"
       empopacity="0.30196078"
       color="#0099e5"
       opacity="0.14901961"
       empspacing="10"
       dotted="false"
       gridanglex="30"
       gridanglez="30"
       visible="true" /></sodipodi:namedview><path
     id="path1"
     style="fill:#ffffff;stroke-width:56.9864"
     d="M 12.25 0 C 9.9250047 0 6.8249954 0.73359815 4.5 2.9335938 L 4.5 8.0664062 C 6.8249954 10.266401 9.9250047 11 12.25 11 L 18.25 11 L 16.5 13 L 12.25 13 C 9.9250046 13 6.8249954 13.733598 4.5 15.933594 L 4.5 21.066406 C 6.8249954 23.266401 9.9250046 24 12.25 24 L 18.25 24 L 16.5 26 L 12.25 26 C 9.9250047 26 6.8249954 26.733598 4.5 28.933594 L 4.5 34.066406 C 6.8249954 36.266401 9.9250047 37 12.25 37 L 18.25 37 L 16.5 39 L 12.25 39 C 9.9250047 39 6.8249954 39.733598 4.5 41.933594 L 4.5 47.066406 C 6.8249954 49.266401 9.9250047 50 12.25 50 L 14 50 L 15 52 L 17.5 52 L 17.5 60 L 22.5 60 L 22.5 52 L 25 52 L 26 50 L 27.75 50 C 30.074995 50 33.175003 49.266401 35.5 47.066406 L 35.5 41.933594 C 33.175003 39.733598 30.074995 39 27.75 39 L 23.5 39 L 21.75 37 L 27.75 37 C 30.074995 37 33.175003 36.266401 35.5 34.066406 L 35.5 28.933594 C 33.175003 26.733598 30.074995 26 27.75 26 L 23.5 26 L 21.75 24 L 27.75 24 C 30.074995 24 33.175003 23.266401 35.5 21.066406 L 35.5 15.933594 C 33.175003 13.733598 30.074995 13 27.75 13 L 23.5 13 L 21.75 11 L 27.75 11 C 30.074995 11 33.175003 10.266401 35.5 8.0664062 L 35.5 2.9335938 C 33.175003 0.73359815 30.074995 -2.9605918e-16 27.75 0 L 12.25 0 z " /></svg>
