<svg width="40" height="60" xml:space="preserve" xmlns="http://www.w3.org/2000/svg">
  <path d="M 12 0 C 9.0134355 0.3339915 6.6712495 1.3249726 5 3 L 5 7 C 6.7826357 8.8294589 9.2359868 9.6486964 12 10 L 19 10 L 17 13 L 12 13 C 9.0134355 13.333992 6.6712495 14.324973 5 16 L 5 20 C 6.7826357 21.829459 9.2359868 22.648696 12 23 L 19 23 L 17 26 L 12 26 C 9.013436 26.333992 6.6712495 27.324973 5 29 L 5 33 C 6.7826357 34.829459 9.2359868 35.648696 12 36 L 19 36 L 17 39 L 12 39 C 9.0134355 39.333992 6.6712495 40.324973 5 42 L 5 46 C 6.7826357 47.829459 9.2359868 48.648696 12 49 L 14 49 L 14 50 L 17.5 50 L 17.5 60 L 22.5 60 L 22.5 50 L 25.806641 50 L 25.806641 49 L 28 49 C 30.453072 48.592399 32.893906 48.124228 35 46 L 35 42 C 33.224641 40.17897 30.774988 39.35012 28 39 L 23 39 L 21 36 L 28 36 C 30.453072 35.592399 32.893906 35.124228 35 33 L 35 29 C 33.224641 27.17897 30.774988 26.35012 28 26 L 23 26 L 21 23 L 28 23 C 30.453072 22.592399 32.893906 22.124228 35 20 L 35 16 C 33.224641 14.17897 30.774988 13.35012 28 13 L 23 13 L 21 10 L 28 10 C 30.453072 9.5923994 32.893906 9.1242279 35 7 L 35 3 C 33.224641 1.1789698 30.774988 0.35012007 28 0 L 12 0 z" fill="#fff"/>
</svg>
