<svg width="40" height="60" xmlns="http://www.w3.org/2000/svg">
  <path d="M 12,0 C 9.5999836,0 6.4000163,0.75365651 4,3.0117188 v 5.2675781 c 2.4000163,2.2580631 5.5999836,3.0117191 8,3.0117191 h 6.399613 l -1.600387,1.611328 H 12 c -2.4000164,0 -5.5999837,0.753657 -8,3.011718 v 5.269532 c 2.4000163,2.258061 5.5999836,3.009765 8,3.009765 h 6.399613 l -1.600387,1.613282 H 12 c -2.4000164,0 -5.5999837,0.751703 -8,3.009765 v 5.269532 c 2.4000163,2.258061 5.5999836,3.011718 8,3.011718 h 6.399613 l -1.600387,1.611328 H 12 c -2.4000164,0 -5.5999837,0.753656 -8,3.011719 v 5.267578 C 6.4000163,49.246344 9.5999836,50 12,50 h 3.039962 v 2 h 2.480018 v 8 h 4.96004 v -8 h 2.480018 V 50 H 28 c 2.400017,0 5.599984,-0.753656 8,-3.011719 V 41.720703 C 33.599984,39.46264 30.400017,38.708984 28,38.708984 H 23.200774 L 21.600387,37.097656 H 28 c 2.400017,0 5.599984,-0.753657 8,-3.011718 V 28.816406 C 33.599984,26.558344 30.400017,25.806641 28,25.806641 H 23.200774 L 21.600387,24.193359 H 28 c 2.400017,0 5.599984,-0.751704 8,-3.009765 V 15.914062 C 33.599984,13.656001 30.400017,12.902344 28,12.902344 H 23.200774 L 21.600387,11.291016 H 28 c 2.400017,0 5.599984,-0.753656 8,-3.0117191 V 3.0117188 C 33.599984,0.75365651 30.400017,0 28,0 Z" fill="#fff"/>
</svg>
