<svg width="40" height="60" xmlns="http://www.w3.org/2000/svg">
	<path style="fill:#fff;" d="M20 26c-4.5 0-9 1-13 3-1.856.928-3.715 6.16-6.371 8.506A20 2 0 0 0 0 38a20 2 0 0 0 20 2 20 2 0 0 0 20-2 20 2 0 0 0-.635-.498C36.712 35.153 34.855 29.928 33 29c-4-2-8.5-3-13-3ZM3.834 40.184C2.88 41.77 1.839 43.437.629 44.506A20 2 0 0 0 0 45a20 2 0 0 0 20 2 20 2 0 0 0 20-2 20 2 0 0 0-.635-.498c-1.209-1.07-2.249-2.733-3.2-4.318-.597.08-1.226.156-1.923.226-3.67.367-8.692.59-14.242.59-5.55 0-10.573-.223-14.242-.59a56.735 56.735 0 0 1-1.924-.226ZM14.5 48v7c-.69 1.607-2.27 2.669-3 3v1a8.5 1 0 0 0 8.5 1 8.5 1 0 0 0 8.5-1v-1c-.79-.346-2.351-1.528-3-3v-1H28v-5h-2.5v-1a18.333 2.6 0 0 1-5.5.125A18.333 2.6 0 0 1 14.5 48Z"/>
</svg>