<svg width="40" height="60" xml:space="preserve" xmlns="http://www.w3.org/2000/svg"><path style="fill:#fff;stroke:none;stroke-width:8.35476;stroke-linecap:round;stroke-linejoin:round;stroke-dasharray:none" d="M17.611 9a3.105 3.105 0 0 0-3.111 3.111v7.397A30.154 30.154 0 0 1 20 19c1.845 0 3.69.172 5.5.508V18H28v-5h-2.5v-.889A3.105 3.105 0 0 0 22.389 9H17.61zM20 20c-4.5 0-9 1-13 3-1.856.928-3.715 6.16-6.371 8.506A20 2 0 0 0 0 32a20 2 0 0 0 20 2 20 2 0 0 0 20-2 20 2 0 0 0-.635-.498C36.712 29.153 34.855 23.928 33 23c-4-2-8.5-3-13-3zM3.834 34.184C2.88 35.77 1.839 37.437.629 38.506A20 2 0 0 0 0 39a20 2 0 0 0 20 2 20 2 0 0 0 20-2 20 2 0 0 0-.635-.498c-1.209-1.07-2.248-2.733-3.2-4.318-.596.08-1.226.156-1.923.226-3.67.367-8.692.59-14.242.59-5.55 0-10.573-.223-14.242-.59a56.735 56.735 0 0 1-1.924-.226zm0 7C2.88 42.77 1.839 44.437.629 45.506A20 2 0 0 0 0 46a20 2 0 0 0 20 2 20 2 0 0 0 20-2 20 2 0 0 0-.635-.498c-1.209-1.07-2.248-2.733-3.2-4.318-.596.08-1.226.156-1.923.226-3.67.367-8.692.59-14.242.59-5.55 0-10.573-.223-14.242-.59a56.735 56.735 0 0 1-1.924-.226zM14.5 49v7c-.69 1.607-2.27 2.669-3 3v1h17v-1c-.79-.346-2.351-1.528-3-3v-1H28v-5h-2.5v-1a18.333 2.6 0 0 1-5.5.125A18.333 2.6 0 0 1 14.5 49z"/></svg>