<svg width="40" height="60" xmlns="http://www.w3.org/2000/svg">
  <path d="m 18.503766,47.853371 q -1.724473,0 -3.753265,-0.152159 -2.028792,-0.10144 -4.006864,-0.355039 Q 8.8162847,47.041854 7.2946907,46.788255 V 40.44828 q 1.8259128,0.15216 3.7532653,0.304319 1.927352,0.15216 3.651825,0.253599 1.775193,0.05072 2.992468,0.05072 2.282391,0 3.601106,-0.152159 1.369435,-0.20288 1.927353,-1.014396 0.608637,-0.811517 0.608637,-2.63743 0,-1.724473 -0.405758,-2.58671 -0.405759,-0.912956 -1.420155,-1.217275 -1.014396,-0.304319 -2.840308,-0.304319 h -5.832777 v -6.695013 h 5.832777 q 1.623033,0 2.53599,-0.253599 0.963676,-0.304319 1.369434,-1.065116 0.456478,-0.811517 0.456478,-2.43455 0,-1.825913 -0.507198,-2.58671 -0.507198,-0.811517 -1.876632,-0.963676 -1.369435,-0.202879 -3.956144,-0.202879 -1.470875,0 -3.246068,0.101439 -1.724473,0.10144 -3.448946,0.253599 -1.6737533,0.10144 -2.9924681,0.304319 v -6.390695 q 1.4708742,-0.304318 3.3982261,-0.557917 1.978073,-0.253599 3.956145,-0.355039 2.028792,-0.152159 3.702545,-0.152159 4.006864,0 6.644294,0.608637 2.688149,0.608638 4.260463,1.775193 1.572314,1.166556 2.231671,2.891029 0.710077,1.673753 0.710077,3.905424 0,3.803985 -1.521594,5.680618 -1.521594,1.876632 -4.514062,2.53599 v 0.202879 q 2.028792,0.456478 3.448946,1.318715 1.420155,0.862236 2.130232,2.53599 0.760797,1.673753 0.760797,4.514062 0,2.180951 -0.608638,4.006864 -0.557917,1.775193 -2.079511,3.093908 -1.521594,1.267995 -4.311183,1.978072 -2.789589,0.659357 -7.202212,0.659357 z" fill="#fff"/>
</svg>
