<svg width="40" height="60" xmlns="http://www.w3.org/2000/svg">
  <path d="m 20.000001,47.853371 q -4.463343,0 -7.354371,-0.659357 Q 9.8053211,46.534656 8.2330073,45.266661 6.7114133,43.998666 6.1027757,42.223473 5.4941382,40.397561 5.4941382,38.11517 q 0,-2.891029 0.7100771,-4.514062 0.760797,-1.673754 2.1809514,-2.53599 1.4201544,-0.862237 3.4489463,-1.318715 V 29.543524 Q 8.7909251,28.884166 7.2693311,27.007534 5.7984569,25.130901 5.7984569,21.326916 q 0,-2.231671 0.6593574,-3.956144 0.7100772,-1.724473 2.282391,-2.891029 1.6230337,-1.166555 4.3619027,-1.724473 2.789589,-0.608637 6.897893,-0.608637 4.108303,0 6.847173,0.608637 2.789588,0.557918 4.361902,1.724473 1.623034,1.166556 2.282391,2.891029 0.710077,1.724473 0.710077,3.956144 0,3.803985 -1.521594,5.680618 -1.470874,1.876632 -4.514062,2.53599 v 0.202879 q 2.079512,0.456478 3.448947,1.318715 1.420154,0.862236 2.130231,2.53599 0.760797,1.623033 0.760797,4.514062 0,2.282391 -0.608637,4.108303 -0.608638,1.775193 -2.180952,3.043188 -1.572314,1.267995 -4.412622,1.927353 -2.840309,0.659357 -7.303651,0.659357 z m 0,-6.593574 q 2.282391,0 3.499666,-0.202879 1.217275,-0.253599 1.673753,-1.115835 0.507198,-0.912957 0.507198,-2.789589 0,-1.420155 -0.253599,-2.282391 -0.202879,-0.862237 -0.862236,-1.267995 -0.608638,-0.456479 -1.724474,-0.608638 -1.115835,-0.152159 -2.840308,-0.152159 -1.724473,0 -2.840309,0.152159 -1.115836,0.152159 -1.724473,0.608638 -0.608638,0.405758 -0.862237,1.267995 -0.202879,0.862236 -0.202879,2.282391 0,1.876632 0.456478,2.789589 0.456478,0.862236 1.673754,1.115835 1.267995,0.202879 3.499666,0.202879 z m 0,-14.505862 q 2.33311,0 3.448946,-0.253599 1.166555,-0.253599 1.521594,-1.115836 0.405758,-0.862236 0.405758,-2.58671 0,-1.825912 -0.405758,-2.637429 -0.355039,-0.862237 -1.521594,-1.115836 -1.115836,-0.304318 -3.448946,-0.304318 -2.282391,0 -3.448947,0.304318 -1.166555,0.253599 -1.521594,1.115836 -0.355038,0.811517 -0.355038,2.637429 0,1.724474 0.355038,2.58671 0.355039,0.862237 1.521594,1.115836 1.166556,0.253599 3.448947,0.253599 z" fill="#fff"/>
</svg>
