<svg width="40" height="60" xmlns="http://www.w3.org/2000/svg">
  <path d="m 7.2186101,47.65049 v -4.818381 q 0,-2.891029 0.1521594,-4.97054 0.1521594,-2.079512 0.6593574,-3.550386 0.5579178,-1.470875 1.7244731,-2.48527 1.166555,-1.065116 3.195347,-1.927353 l 7.70941,-3.093908 q 1.470874,-0.608637 2.180951,-1.065115 0.710077,-0.507198 0.912957,-1.217276 0.202879,-0.710077 0.202879,-1.978072 0,-1.572313 -0.507198,-2.282391 -0.507198,-0.760797 -1.825913,-0.912956 -1.318715,-0.202879 -3.702545,-0.202879 -1.115836,0 -2.789589,0.101439 -1.623034,0.10144 -3.499666,0.253599 -1.876633,0.15216 -3.7025457,0.355039 v -6.390695 q 1.6737533,-0.304319 3.8039847,-0.557918 2.130232,-0.253599 4.361903,-0.405758 2.282391,-0.152159 4.209743,-0.152159 2.53599,0 4.767661,0.355038 2.282391,0.304319 4.006864,1.267995 1.724474,0.963676 2.68815,2.891029 1.014396,1.927352 1.014396,5.173419 0,3.246067 -0.710077,5.22414 -0.659358,1.978072 -1.978073,3.144627 -1.318714,1.166556 -3.195347,1.927352 l -8.723805,3.398227 q -1.014396,0.405758 -1.572314,0.862237 -0.507198,0.405758 -0.710077,1.115835 -0.202879,0.659358 -0.202879,1.775193 v 1.318715 h 17.092572 v 6.847173 z" fill="#fff"/>
</svg>
