<svg width="40" height="60" xmlns="http://www.w3.org/2000/svg">
  <path d="M 20 25 C 17.166064 25 2.2829744 37.133808 0.59570312 38.515625 A 20 2 0 0 0 0 39 A 20 2 0 0 0 20 41 A 20 2 0 0 0 40 39 A 20 2 0 0 0 39.400391 38.515625 C 37.710694 37.132597 22.833936 25.001953 20 25.001953 L 20 25 z M 10.5 41.751953 L 10.5 45 C 10.5 45.553998 10.949569 45.937239 11.5 46 C 17.11475 46.640202 22.780873 46.647045 28.5 46 C 29.050486 45.93772 29.5 45.553998 29.5 45 L 29.5 41.751953 C 26.653922 41.90555 23.453202 42 20 42 C 16.546798 42 13.346078 41.90555 10.5 41.751953 z M 25.5 47.28125 C 21.812487 47.548461 18.14511 47.547654 14.5 47.283203 L 14.5 55.369141 C 13.810002 56.858137 12.229998 57.839486 11.5 58.146484 L 11.5 59.074219 C 11.5 59.585633 15.30559 60 20 60 C 24.69441 60 28.5 59.585633 28.5 59.074219 L 28.5 58.146484 C 27.710002 57.826486 26.148998 56.733137 25.5 55.369141 L 25.5 55 L 26.800781 55 C 27.465581 55 28 54.465581 28 53.800781 L 28 50.199219 C 28 49.534419 27.465581 49 26.800781 49 L 25.5 49 L 25.5 47.28125 z" fill="#fff"/>
</svg>
