<svg width="40" height="60" xmlns="http://www.w3.org/2000/svg">
	<path style="fill:#fff;" d="M20 26.8c-2.338 0-14.616 10.011-16.008 11.151a16.5 1.65 0 0 0-.492.399A16.5 1.65 0 0 0 20 40a16.5 1.65 0 0 0 16.5-1.65 16.5 1.65 0 0 0-.494-.399C34.612 36.81 22.338 26.801 20 26.801zM7.06 40.38a314.889 314.889 0 0 0-6.462 5.136A20 2 0 0 0 0 46a20 2 0 0 0 20 2 20 2 0 0 0 20-2 20 2 0 0 0-.6-.484c-.655-.538-3.31-2.698-6.462-5.135-.37.045-.757.09-1.17.13C28.732 40.816 24.583 41 20 41c-4.583 0-8.732-.185-11.768-.488a51.615 51.615 0 0 1-1.171-.131zm7.44 8.505v6.484c-.69 1.489-2.27 2.47-3 2.777v.928A8.5.926 0 0 0 20 60a8.5.926 0 0 0 8.5-.926v-.928c-.79-.32-2.351-1.413-3-2.777v-.928H28v-4.63h-2.5v-.926A18.333 2.408 0 0 1 20 49a18.333 2.408 0 0 1-5.5-.115z"/>
</svg>