<svg width="60" height="90" xmlns="http://www.w3.org/2000/svg">
  <path d="M 4.9941406 0 L 4.9941406 24.898438 L 10.857422 24.898438 L 10.857422 8.7207031 L 11.146484 8.7207031 L 16.501953 24.898438 L 20.736328 24.898438 L 26.126953 8.7207031 L 26.380859 8.7207031 L 26.380859 24.898438 L 32.423828 24.898438 L 32.423828 0 L 23.8125 0 L 18.853516 14.765625 L 18.601562 14.765625 L 13.642578 0 L 4.9941406 0 z M 37.5625 0 L 37.5625 24.898438 L 55.005859 24.898438 L 55.005859 20.048828 L 43.859375 20.048828 L 43.859375 14.728516 L 53.304688 14.728516 L 53.304688 9.9511719 L 43.859375 9.9511719 L 43.859375 4.8496094 L 55.005859 4.8496094 L 55.005859 0 L 37.5625 0 z M 30 34.373047 C 19.759316 34.373047 11.457031 42.675333 11.457031 52.916016 C 11.460531 55.6279 12.059973 58.30424 13.210938 60.759766 L 25.523438 87.146484 C 26.335647 88.885882 28.080315 89.998911 30 90 C 31.91897 89.9986 33.664185 88.886969 34.476562 87.148438 L 46.789062 60.759766 C 47.94003 58.30424 48.539436 55.6279 48.542969 52.916016 C 48.542969 42.675333 40.240683 34.373047 30 34.373047 z M 30 43.644531 A 9.2712177 9.2712177 0 0 1 39.271484 52.916016 A 9.2712177 9.2712177 0 0 1 30 62.185547 A 9.2712177 9.2712177 0 0 1 20.728516 52.916016 A 9.2712177 9.2712177 0 0 1 30 43.644531 z" fill="#fff"/>
</svg>
