<svg width="40" height="60" xmlns="http://www.w3.org/2000/svg">
  <path d="M 3.3294273,0 V 16.598959 H 7.2382816 V 5.8138021 h 0.192708 L 11.001303,16.598959 h 2.822916 L 17.417969,5.8138021 H 17.58724 V 16.598959 h 4.028646 V 0 h -5.740885 l -3.30599,9.84375 H 12.401042 L 9.0950527,0 Z M 25.041667,0 V 16.598959 H 36.670573 V 13.365885 H 29.239584 V 9.8190107 h 6.296875 V 6.6341146 H 29.239584 V 3.2330729 h 7.430989 V 0 Z m -5.041666,22.915365 c -6.827123,0 -12.3619801,5.534857 -12.3619801,12.361979 0.00233,1.807923 0.4019613,3.592149 1.1692718,5.229167 l 8.2083333,17.591145 c 0.541473,1.159599 1.704585,1.901618 2.984375,1.902344 1.279313,-9.33e-4 2.44279,-0.742021 2.984374,-1.901041 l 8.208334,-17.592448 c 0.767312,-1.637018 1.166916,-3.421244 1.169271,-5.229167 0,-6.827122 -5.534857,-12.361979 -12.361979,-12.361979 z m 0,6.180989 a 6.1808118,6.1808118 0 0 1 6.180989,6.18099 6.1808118,6.1808118 0 0 1 -6.180989,6.179687 6.1808118,6.1808118 0 0 1 -6.18099,-6.179687 6.1808118,6.1808118 0 0 1 6.18099,-6.18099 z" fill="#fff"/>
</svg>
