<svg width="40" height="60" xmlns="http://www.w3.org/2000/svg">
  <path d="M 2.2552082,0 V 16.598959 H 6.1640624 V 5.8138021 H 6.3567707 L 9.9270837,16.598959 H 12.75 L 16.345052,5.8138021 h 0.169271 V 16.598959 h 4.028646 V 0 H 14.800782 L 11.496094,9.84375 H 11.326823 L 8.0221352,0 Z M 23.96875,0 v 16.598959 h 4.197917 v -6.58724 h 5.380208 v 6.58724 h 4.197917 V 0 H 33.546875 V 6.5143229 H 28.166667 V 0 Z M 20,22.915365 c -6.827122,0 -12.3619795,5.534857 -12.3619795,12.361979 0.00233,1.807923 0.4019614,3.592149 1.1692714,5.229167 L 17.015625,58.097656 C 17.557098,59.257255 18.72021,59.999274 20,60 c 1.279314,-9.33e-4 2.44279,-0.742021 2.984375,-1.901041 l 8.208333,-17.592448 c 0.767312,-1.637018 1.166916,-3.421244 1.169271,-5.229167 0,-6.827122 -5.534857,-12.361979 -12.361979,-12.361979 z m 0,6.180989 a 6.1808118,6.1808118 0 0 1 6.180989,6.18099 A 6.1808118,6.1808118 0 0 1 20,41.457031 6.1808118,6.1808118 0 0 1 13.819011,35.277344 6.1808118,6.1808118 0 0 1 20,29.096354 Z" fill="#fff"/>
</svg>
