<svg width="60" height="90" xmlns="http://www.w3.org/2000/svg">
  <path d="M 3.3828125 0 L 3.3828125 24.898438 L 9.2460938 24.898438 L 9.2460938 8.7207031 L 9.5351562 8.7207031 L 14.890625 24.898438 L 19.125 24.898438 L 24.517578 8.7207031 L 24.771484 8.7207031 L 24.771484 24.898438 L 30.814453 24.898438 L 30.814453 0 L 22.201172 0 L 17.244141 14.765625 L 16.990234 14.765625 L 12.033203 0 L 3.3828125 0 z M 35.953125 0 L 35.953125 24.898438 L 42.25 24.898438 L 42.25 15.017578 L 50.320312 15.017578 L 50.320312 24.898438 L 56.617188 24.898438 L 56.617188 0 L 50.320312 0 L 50.320312 9.7714844 L 42.25 9.7714844 L 42.25 0 L 35.953125 0 z M 30 34.373047 C 19.759316 34.373047 11.457031 42.675333 11.457031 52.916016 C 11.460531 55.6279 12.059973 58.30424 13.210938 60.759766 L 25.523438 87.146484 C 26.335647 88.885882 28.080315 89.998911 30 90 C 31.91897 89.9986 33.664185 88.886969 34.476562 87.148438 L 46.789062 60.759766 C 47.94003 58.30424 48.539436 55.6279 48.542969 52.916016 C 48.542969 42.675333 40.240683 34.373047 30 34.373047 z M 30 43.644531 A 9.2712177 9.2712177 0 0 1 39.271484 52.916016 A 9.2712177 9.2712177 0 0 1 30 62.185547 A 9.2712177 9.2712177 0 0 1 20.728516 52.916016 A 9.2712177 9.2712177 0 0 1 30 43.644531 z" fill="#fff"/>
</svg>
