<svg width="40" height="60" xmlns="http://www.w3.org/2000/svg">
  <path d="M 0,0 V 16.598959 H 3.9088541 V 5.8138021 H 4.1015625 L 7.6718747,16.598959 H 10.494792 L 14.089844,5.8138021 h 0.167969 V 16.598959 h 4.028646 V 0 H 12.545573 L 9.2395833,9.84375 H 9.0716147 L 5.765625,0 Z m 21.713541,0 v 16.598959 h 3.907553 V 5.8138021 h 0.192708 l 3.571615,10.7851569 h 2.821614 L 35.802083,5.8138021 h 0.169271 V 16.598959 H 40 V 0 H 34.257813 L 30.953125,9.84375 H 30.783854 L 27.479167,0 Z M 20,22.915365 c -6.827123,0 -12.3619793,5.534857 -12.3619793,12.361979 0.00233,1.807923 0.4019613,3.592149 1.1692713,5.229167 l 8.208333,17.591145 C 17.557098,59.257255 18.72021,59.999274 20,60 c 1.279313,-9.33e-4 2.44279,-0.742021 2.984375,-1.901041 l 8.208333,-17.592448 c 0.767312,-1.637018 1.166916,-3.421244 1.169271,-5.229167 0,-6.827122 -5.534857,-12.361979 -12.361979,-12.361979 z m 0,6.180989 a 6.1808118,6.1808118 0 0 1 6.180989,6.18099 A 6.1808118,6.1808118 0 0 1 20,41.457031 6.1808118,6.1808118 0 0 1 13.819011,35.277344 6.1808118,6.1808118 0 0 1 20,29.096354 Z" fill="#fff"/>
</svg>
