<svg width="60" height="90" xmlns="http://www.w3.org/2000/svg">
  <path d="M 0 0 L 0 24.898438 L 5.8632812 24.898438 L 5.8632812 8.7207031 L 6.1523438 8.7207031 L 11.507812 24.898438 L 15.742188 24.898438 L 21.134766 8.7207031 L 21.386719 8.7207031 L 21.386719 24.898438 L 27.429688 24.898438 L 27.429688 0 L 18.818359 0 L 13.859375 14.765625 L 13.607422 14.765625 L 8.6484375 0 L 0 0 z M 32.570312 0 L 32.570312 24.898438 L 38.431641 24.898438 L 38.431641 8.7207031 L 38.720703 8.7207031 L 44.078125 24.898438 L 48.310547 24.898438 L 53.703125 8.7207031 L 53.957031 8.7207031 L 53.957031 24.898438 L 60 24.898438 L 60 0 L 51.386719 0 L 46.429688 14.765625 L 46.175781 14.765625 L 41.21875 0 L 32.570312 0 z M 30 34.373047 C 19.759316 34.373047 11.457031 42.675333 11.457031 52.916016 C 11.460531 55.6279 12.059973 58.30424 13.210938 60.759766 L 25.523438 87.146484 C 26.335647 88.885882 28.080315 89.998911 30 90 C 31.91897 89.9986 33.664185 88.886969 34.476562 87.148438 L 46.789062 60.759766 C 47.94003 58.30424 48.539436 55.6279 48.542969 52.916016 C 48.542969 42.675333 40.240683 34.373047 30 34.373047 z M 30 43.644531 A 9.2712177 9.2712177 0 0 1 39.271484 52.916016 A 9.2712177 9.2712177 0 0 1 30 62.185547 A 9.2712177 9.2712177 0 0 1 20.728516 52.916016 A 9.2712177 9.2712177 0 0 1 30 43.644531 z" fill="#fff"/>
</svg>
