<svg width="40" height="60" xmlns="http://www.w3.org/2000/svg">
  <path d="m 20,10 c -7.179851,0 -13,5.969383 -13,13.333334 0.00244,1.950082 0.4213604,3.873908 1.228314,5.639647 l 8.633117,18.975088 C 17.430878,49.198849 18.654088,49.999217 20,50 c 1.34541,-9.99e-4 2.569002,-0.799668 3.138568,-2.049823 L 31.771685,28.972981 C 32.578641,27.207242 32.997521,25.283416 33,23.333334 33,15.969383 27.179851,10 20,10 Z m 0,6.665613 A 6.5001553,6.6668259 0 0 1 26.501027,23.333334 6.5001553,6.6668259 0 0 1 20,29.998946 6.5001553,6.6668259 0 0 1 13.498972,23.333334 6.5001553,6.6668259 0 0 1 20,16.665613 Z" fill="#fff"/>
</svg>
