<svg width="60" height="90" xmlns="http://www.w3.org/2000/svg">
  <path d="M 8.4492188 0 L 8.4492188 24.898438 L 14.746094 24.898438 L 14.746094 16.791016 L 20.320312 16.791016 C 21.984968 16.791016 23.322669 16.585914 24.335938 16.175781 C 25.349206 15.765649 26.110553 15.187342 26.617188 14.439453 C 27.147947 13.691565 27.497137 12.810143 27.666016 11.796875 C 27.859019 10.759481 27.955078 9.6268819 27.955078 8.3964844 C 27.955078 7.0454595 27.859019 5.8498941 27.666016 4.8125 C 27.473012 3.7751059 27.110838 2.9066692 26.580078 2.2070312 C 26.049318 1.483268 25.289924 0.94000667 24.300781 0.578125 C 23.311638 0.1921179 22.020014 -2.327803e-17 20.427734 0 L 8.4492188 0 z M 31.71875 0 L 31.71875 24.898438 L 44.275391 24.898438 C 45.626415 24.898438 46.760967 24.752396 47.677734 24.462891 C 48.618626 24.14926 49.36699 23.715042 49.921875 23.160156 C 50.500886 22.581145 50.911089 21.882765 51.152344 21.0625 C 51.417723 20.242235 51.550781 19.312785 51.550781 18.275391 C 51.550781 17.020867 51.393708 15.995358 51.080078 15.199219 C 50.766447 14.378954 50.271216 13.739634 49.595703 13.28125 C 48.944316 12.822866 48.088863 12.484707 47.027344 12.267578 L 47.027344 12.123047 C 48.016487 11.905918 48.823911 11.567759 49.451172 11.109375 C 50.102559 10.626866 50.584806 9.987546 50.898438 9.1914062 C 51.212068 8.3952666 51.369141 7.4177869 51.369141 6.2597656 C 51.369141 4.8604899 51.103025 3.7038762 50.572266 2.7871094 C 50.065631 1.846217 49.282222 1.1458834 48.220703 0.6875 C 47.183309 0.22911657 45.86767 -2.327803e-17 44.275391 0 L 31.71875 0 z M 37.978516 4.7402344 L 41.960938 4.7402344 C 42.853579 4.7402344 43.516914 4.8122786 43.951172 4.9570312 C 44.409555 5.1017839 44.710716 5.3678992 44.855469 5.7539062 C 45.024347 6.1399133 45.109375 6.7071893 45.109375 7.4550781 C 45.109375 8.154716 45.011363 8.6979773 44.818359 9.0839844 C 44.649481 9.4699915 44.33729 9.7471375 43.878906 9.9160156 C 43.420523 10.060768 42.781203 10.132812 41.960938 10.132812 L 37.978516 10.132812 L 37.978516 4.7402344 z M 14.746094 4.7773438 L 18.003906 4.7773438 C 18.848297 4.7773437 19.511632 4.8253732 19.994141 4.921875 C 20.476649 4.9942513 20.838824 5.1623545 21.080078 5.4277344 C 21.321333 5.6689888 21.465421 6.031163 21.513672 6.5136719 C 21.586048 6.9961807 21.623047 7.6244701 21.623047 8.3964844 C 21.623047 9.1684985 21.586048 9.794835 21.513672 10.277344 C 21.441296 10.735727 21.284223 11.097902 21.042969 11.363281 C 20.801714 11.604536 20.428509 11.772639 19.921875 11.869141 C 19.439365 11.965643 18.763047 12.013672 17.894531 12.013672 L 14.746094 12.013672 L 14.746094 4.7773438 z M 37.978516 14.511719 L 42.068359 14.511719 C 42.91275 14.511719 43.565054 14.596747 44.023438 14.765625 C 44.505946 14.910378 44.831122 15.187524 45 15.597656 C 45.168878 16.007789 45.253906 16.599079 45.253906 17.371094 C 45.253906 18.118982 45.168878 18.697289 45 19.107422 C 44.831122 19.517554 44.516977 19.807685 44.058594 19.976562 C 43.600211 20.121316 42.936876 20.193359 42.068359 20.193359 L 37.978516 20.193359 L 37.978516 14.511719 z M 30 34.373047 C 19.759316 34.373047 11.457031 42.675333 11.457031 52.916016 C 11.460531 55.6279 12.059973 58.30424 13.210938 60.759766 L 25.523438 87.146484 C 26.335647 88.885882 28.080315 89.998911 30 90 C 31.91897 89.9986 33.664185 88.886969 34.476562 87.148438 L 46.789062 60.759766 C 47.94003 58.30424 48.539436 55.6279 48.542969 52.916016 C 48.542969 42.675333 40.240683 34.373047 30 34.373047 z M 30 43.644531 A 9.2712177 9.2712177 0 0 1 39.271484 52.916016 A 9.2712177 9.2712177 0 0 1 30 62.185547 A 9.2712177 9.2712177 0 0 1 20.728516 52.916016 A 9.2712177 9.2712177 0 0 1 30 43.644531 z" fill="#fff"/>
</svg>
