<svg width="40" height="60" xmlns="http://www.w3.org/2000/svg">
  <path d="M 20,0 C 8.9540753,0 0,8.9540751 0,20 c 0.00372128,2.925125 0.64824669,5.810863 1.8897139,8.459471 L 15.171433,56.922104 C 16.047506,58.798274 17.929367,59.998826 20,60 c 2.069863,-0.0015 3.952311,-1.199502 4.828567,-3.074735 L 38.110285,28.459471 C 39.351757,25.810863 39.996187,22.925125 40,20 40,8.9540751 31.045925,0 20,0 Z m 0,9.9984191 A 10.000239,10.000239 0 0 1 30.001581,20 10.000239,10.000239 0 0 1 20,29.998419 10.000239,10.000239 0 0 1 9.9984193,20 10.000239,10.000239 0 0 1 20,9.9984191 Z" fill="#fff"/>
</svg>
