<svg width="40" height="60" xmlns="http://www.w3.org/2000/svg">
  <path d="m 5.6328124,0 v 16.598959 h 4.1979172 v -5.404948 h 3.7161454 c 1.109771,0 2.001571,-0.136735 2.677084,-0.410157 0.675512,-0.273421 1.183077,-0.658959 1.520833,-1.157552 0.35384,-0.498592 0.586633,-1.0862067 0.699219,-1.7617187 0.128669,-0.691596 0.192708,-1.446662 0.192708,-2.266927 0,-0.9006833 -0.06404,-1.6977269 -0.192708,-2.389323 C 18.315342,2.5167373 18.073892,1.9377795 17.720052,1.4713541 17.366212,0.98884533 16.85995,0.62667111 16.200521,0.38541667 15.541092,0.1280786 14.68001,0 13.61849,0 Z M 21.145834,0 v 16.598959 h 8.371094 c 0.900682,0 1.65705,-0.09736 2.268228,-0.290365 0.627262,-0.209087 1.126171,-0.498566 1.496094,-0.86849 0.386008,-0.386007 0.659476,-0.851594 0.820313,-1.398437 0.176919,-0.546844 0.265625,-1.166477 0.265625,-1.858073 0,-0.836349 -0.104716,-1.520022 -0.313802,-2.050781 C 33.844298,9.5859693 33.514144,9.159756 33.063802,8.8541667 32.629544,8.5485773 32.059242,8.323138 31.351563,8.1783853 v -0.096354 c 0.659429,-0.1447526 1.197711,-0.370192 1.615885,-0.6757813 0.434258,-0.3216727 0.755756,-0.747886 0.964844,-1.2786459 0.209087,-0.5307597 0.313802,-1.1824128 0.313802,-1.954427 0,-0.9328505 -0.17741,-1.7039263 -0.53125,-2.3151042 C 33.377088,1.2308113 32.854815,0.76392227 32.147136,0.45833333 31.45554,0.15274438 30.578447,0 29.516928,0 Z m 4.173177,3.1601563 h 2.654948 c 0.595094,0 1.037317,0.048029 1.326823,0.1445312 0.305588,0.096502 0.506362,0.273912 0.602864,0.53125 0.112586,0.257338 0.169271,0.635522 0.169271,1.1341146 0,0.4664252 -0.06534,0.8285994 -0.194011,1.0859375 -0.112585,0.2573381 -0.320712,0.4421021 -0.626302,0.5546875 -0.305588,0.096502 -0.731802,0.1445309 -1.278645,0.1445309 H 25.319011 Z M 9.8307296,3.1848953 h 2.1718744 c 0.562928,-10e-8 1.005151,0.032019 1.326824,0.096354 0.321672,0.048251 0.563122,0.1603197 0.723958,0.3372396 0.160836,0.1608363 0.256895,0.4022858 0.289062,0.7239584 0.04825,0.3216725 0.07292,0.7405321 0.07292,1.2552083 0,0.5146761 -0.02467,0.9322337 -0.07292,1.2539067 -0.04825,0.3055886 -0.152966,0.5470386 -0.313802,0.723958 -0.160836,0.1608366 -0.40964,0.2729053 -0.747396,0.33724 -0.321673,0.064333 -0.772552,0.096354 -1.351562,0.096354 H 9.8307296 Z M 25.319011,9.674479 h 2.726562 c 0.562927,0 0.997797,0.056687 1.303386,0.1692707 0.321672,0.096502 0.538456,0.2812663 0.651041,0.5546873 0.112586,0.273422 0.169271,0.667616 0.169271,1.182292 0,0.498592 -0.05669,0.88413 -0.169271,1.157552 -0.112585,0.273422 -0.322015,0.466842 -0.627604,0.579427 -0.305588,0.0965 -0.747812,0.144531 -1.326823,0.144531 H 25.319011 Z M 20,22.915365 c -6.827122,0 -12.3619794,5.534857 -12.3619794,12.361979 0.0023,1.807923 0.401961,3.592149 1.169271,5.229167 L 17.015626,58.097656 C 17.557098,59.257255 18.72021,59.999274 20,60 c 1.279314,-9.33e-4 2.44279,-0.742021 2.984375,-1.901041 L 31.192708,40.506511 C 31.96002,38.869493 32.359624,37.085267 32.36198,35.277344 32.36198,28.450222 26.827122,22.915365 20,22.915365 Z m 0,6.180989 a 6.1808118,6.1808118 0 0 1 6.18099,6.18099 A 6.1808118,6.1808118 0 0 1 20,41.457031 6.1808118,6.1808118 0 0 1 13.819011,35.277344 6.1808118,6.1808118 0 0 1 20,29.096354 Z" fill="#fff"/>
</svg>
