<svg width="60" height="90" xmlns="http://www.w3.org/2000/svg">
  <path d="M 43.388672 0 C 41.506887 -3.7007397e-17 39.94007 0.13305762 38.685547 0.3984375 C 37.431023 0.63969194 36.405514 1.0498956 35.609375 1.6289062 C 34.83736 2.2079169 34.24607 2.9802947 33.835938 3.9453125 C 33.449931 4.9103303 33.183816 6.1149734 33.039062 7.5625 C 32.89431 9.0100266 32.822266 10.73587 32.822266 12.738281 C 32.822266 14.740693 32.89431 16.466536 33.039062 17.914062 C 33.183816 19.361589 33.449931 20.566232 33.835938 21.53125 C 34.24607 22.496268 34.83736 23.268646 35.609375 23.847656 C 36.405514 24.426667 37.431023 24.849855 38.685547 25.115234 C 39.94007 25.356489 41.506887 25.476562 43.388672 25.476562 C 44.112435 25.476563 44.860798 25.45255 45.632812 25.404297 C 46.428952 25.356046 47.201329 25.284002 47.949219 25.1875 C 48.697107 25.115123 49.336428 25.030096 49.867188 24.933594 L 49.867188 20.300781 C 49.191676 20.397282 48.384252 20.482311 47.443359 20.554688 C 46.502467 20.602941 45.658045 20.626953 44.910156 20.626953 C 43.800385 20.626953 42.88392 20.591907 42.160156 20.519531 C 41.460518 20.423029 40.904273 20.241942 40.494141 19.976562 C 40.084008 19.687057 39.782848 19.252839 39.589844 18.673828 C 39.39684 18.094818 39.263782 17.32244 39.191406 16.357422 C 39.143153 15.392404 39.119141 14.185808 39.119141 12.738281 C 39.119141 11.266629 39.143153 10.060033 39.191406 9.1191406 C 39.263782 8.1541229 39.39684 7.3947289 39.589844 6.8398438 C 39.782848 6.2608331 40.084008 5.8266147 40.494141 5.5371094 C 40.904273 5.2476041 41.460518 5.066517 42.160156 4.9941406 C 42.88392 4.8976389 43.800385 4.8496094 44.910156 4.8496094 C 45.223787 4.8496094 45.609976 4.8606403 46.068359 4.8847656 C 46.526743 4.8847656 47.05702 4.9217643 47.660156 4.9941406 C 48.287418 5.0423915 48.974768 5.1034049 49.722656 5.1757812 L 49.722656 0.65234375 C 49.216022 0.50759109 48.600716 0.38556428 47.876953 0.2890625 C 47.15319 0.19256072 46.404826 0.12051651 45.632812 0.072265625 C 44.860798 0.024014737 44.112435 3.0345454e-18 43.388672 0 z M 10.132812 0.2890625 L 10.132812 25.1875 L 16.429688 25.1875 L 16.429688 17.080078 L 22.001953 17.080078 C 23.666609 17.080078 25.006263 16.874977 26.019531 16.464844 C 27.0328 16.054711 27.792193 15.476405 28.298828 14.728516 C 28.829588 13.980627 29.178778 13.099206 29.347656 12.085938 C 29.540659 11.048543 29.638672 9.9159444 29.638672 8.6855469 C 29.638672 7.334522 29.540659 6.1389566 29.347656 5.1015625 C 29.154652 4.0641684 28.794431 3.1957317 28.263672 2.4960938 C 27.732912 1.7723305 26.971565 1.2310223 25.982422 0.86914062 C 24.993279 0.48313352 23.703608 0.2890625 22.111328 0.2890625 L 10.132812 0.2890625 z M 16.429688 5.0664062 L 19.685547 5.0664062 C 20.529937 5.0664063 21.193272 5.1144357 21.675781 5.2109375 C 22.15829 5.2833138 22.520464 5.451417 22.761719 5.7167969 C 23.002973 5.9580513 23.149015 6.3202255 23.197266 6.8027344 C 23.269642 7.2852432 23.304688 7.9135326 23.304688 8.6855469 C 23.304688 9.457561 23.269642 10.083898 23.197266 10.566406 C 23.12489 11.02479 22.967817 11.386964 22.726562 11.652344 C 22.485308 11.893598 22.11015 12.063654 21.603516 12.160156 C 21.121007 12.256658 20.446641 12.304688 19.578125 12.304688 L 16.429688 12.304688 L 16.429688 5.0664062 z M 30 34.373047 C 19.759316 34.373047 11.457031 42.675333 11.457031 52.916016 C 11.460531 55.6279 12.059973 58.30424 13.210938 60.759766 L 25.523438 87.146484 C 26.335647 88.885882 28.080315 89.998911 30 90 C 31.91897 89.9986 33.664185 88.886969 34.476562 87.148438 L 46.789062 60.759766 C 47.94003 58.30424 48.539436 55.6279 48.542969 52.916016 C 48.542969 42.675333 40.240683 34.373047 30 34.373047 z M 30 43.644531 A 9.2712177 9.2712177 0 0 1 39.271484 52.916016 A 9.2712177 9.2712177 0 0 1 30 62.185547 A 9.2712177 9.2712177 0 0 1 20.728516 52.916016 A 9.2712177 9.2712177 0 0 1 30 43.644531 z" fill="#fff"/>
</svg>
