<svg width="40" height="60" xmlns="http://www.w3.org/2000/svg">
  <path d="m 28.925781,0 c -1.254523,0 -2.299068,0.08870508 -3.135416,0.265625 -0.83635,0.16083629 -1.520022,0.4343054 -2.050782,0.8203125 -0.514676,0.3860071 -0.90887,0.9009256 -1.182291,1.5442708 -0.257338,0.6433452 -0.434748,1.4464406 -0.531251,2.4114584 -0.0965,0.9650177 -0.14453,2.11558 -0.14453,3.4505206 0,1.3349414 0.04803,2.4855037 0.14453,3.4505207 0.0965,0.965018 0.273913,1.768113 0.531251,2.411459 0.273421,0.643345 0.667615,1.158264 1.182291,1.54427 0.53076,0.386008 1.214432,0.668133 2.050782,0.845052 0.836348,0.160837 1.880893,0.240886 3.135416,0.240886 0.482509,0 0.981418,-0.01601 1.496094,-0.04818 0.53076,-0.03217 1.045678,-0.0802 1.544271,-0.144532 0.498592,-0.04825 0.924806,-0.104936 1.278646,-0.16927 v -3.088542 c -0.450341,0.06433 -0.988624,0.12102 -1.615886,0.169271 -0.627261,0.03217 -1.190209,0.04818 -1.688802,0.04818 -0.739847,0 -1.350824,-0.02337 -1.833333,-0.07162 -0.466426,-0.06433 -0.837256,-0.185059 -1.110677,-0.361979 -0.273422,-0.193003 -0.474195,-0.482482 -0.602865,-0.868489 -0.128669,-0.386007 -0.217374,-0.900926 -0.265625,-1.544271 -0.03217,-0.643345 -0.04818,-1.4477427 -0.04818,-2.4127607 0,-0.9811013 0.01601,-1.7854986 0.04818,-2.4127602 0.04825,-0.6433452 0.136956,-1.1496078 0.265625,-1.5195312 0.12867,-0.3860072 0.329443,-0.6754861 0.602865,-0.8684896 0.273421,-0.1930036 0.644251,-0.3137283 1.110677,-0.3619792 0.482509,-0.064335 1.093486,-0.096354 1.833333,-0.096354 0.209087,0 0.466547,0.00735 0.772135,0.023437 0.30559,0 0.659108,0.024666 1.061198,0.072917 0.418175,0.032167 0.876408,0.072843 1.375,0.1210938 V 0.43489583 C 32.810681,0.33839406 32.400477,0.25704285 31.917969,0.19270833 31.43546,0.12837381 30.936551,0.08034434 30.421875,0.04817708 29.907199,0.01600983 29.40829,0 28.925781,0 Z M 6.755208,0.19270833 V 16.791667 h 4.197917 v -5.404948 h 3.714844 c 1.10977,0 2.002873,-0.136734 2.678385,-0.410156 0.675513,-0.273422 1.181775,-0.65896 1.519531,-1.1575523 0.35384,-0.4985927 0.586634,-1.0862067 0.699219,-1.7617187 0.128669,-0.6915967 0.194011,-1.4466624 0.194011,-2.2669274 0,-0.9006833 -0.06534,-1.6977269 -0.194011,-2.3893229 C 19.436435,2.7094456 19.196287,2.1304878 18.842448,1.6640625 18.488608,1.1815537 17.981043,0.82068153 17.321615,0.57942708 16.662186,0.32208901 15.802405,0.19270833 14.740885,0.19270833 Z m 4.197917,3.18489577 h 2.170573 c 0.562927,10e-8 1.00515,0.032019 1.326823,0.096354 0.321672,0.048251 0.563122,0.1603197 0.723958,0.3372396 0.160836,0.1608363 0.258198,0.4022858 0.290365,0.7239584 0.04825,0.3216725 0.07161,0.7405321 0.07161,1.2552083 0,0.5146761 -0.02337,0.9322341 -0.07161,1.2539061 -0.04825,0.3055893 -0.152966,0.5470386 -0.313803,0.7239586 -0.160836,0.160836 -0.410941,0.2742067 -0.748697,0.3385414 -0.321673,0.064333 -0.77125,0.096355 -1.350261,0.096355 H 10.953125 Z M 20,22.915365 c -6.827123,0 -12.361979,5.534857 -12.361979,12.361979 0.0023,1.807923 0.401961,3.592149 1.169271,5.229167 l 8.208333,17.591145 C 17.557098,59.257255 18.72021,59.999274 20,60 c 1.279313,-9.33e-4 2.44279,-0.742021 2.984375,-1.901041 l 8.208333,-17.592448 c 0.767312,-1.637018 1.166916,-3.421244 1.169271,-5.229167 0,-6.827122 -5.534857,-12.361979 -12.361979,-12.361979 z m 0,6.180989 a 6.1808118,6.1808118 0 0 1 6.180989,6.18099 A 6.1808118,6.1808118 0 0 1 20,41.457031 6.1808118,6.1808118 0 0 1 13.819011,35.277344 6.1808118,6.1808118 0 0 1 20,29.096354 Z" fill="#fff"/>
</svg>
