<svg width="60" height="90" xmlns="http://www.w3.org/2000/svg">
  <path d="M 20.029297 0 L 20.029297 5.0664062 L 26.833984 5.0664062 L 26.833984 24.898438 L 33.130859 24.898438 L 33.130859 5.0664062 L 39.970703 5.0664062 L 39.970703 0 L 20.029297 0 z M 30 34.373047 C 19.759316 34.373047 11.457031 42.675333 11.457031 52.916016 C 11.460531 55.6279 12.059973 58.30424 13.210938 60.759766 L 25.523438 87.146484 C 26.335647 88.885882 28.080315 89.998911 30 90 C 31.91897 89.9986 33.664185 88.886969 34.476562 87.148438 L 46.789062 60.759766 C 47.94003 58.30424 48.539436 55.6279 48.542969 52.916016 C 48.542969 42.675333 40.240683 34.373047 30 34.373047 z M 30 43.644531 A 9.2712177 9.2712177 0 0 1 39.271484 52.916016 A 9.2712177 9.2712177 0 0 1 30 62.185547 A 9.2712177 9.2712177 0 0 1 20.728516 52.916016 A 9.2712177 9.2712177 0 0 1 30 43.644531 z" fill="#fff"/>
</svg>
