<svg width="40" height="60" xmlns="http://www.w3.org/2000/svg">
  <path d="m 13.352864,0 v 3.3776041 h 4.536458 V 16.598959 h 4.197917 V 3.3776041 h 4.559896 V 0 Z m 6.647135,22.915365 c -6.827122,0 -12.3619785,5.534857 -12.3619785,12.361979 0.0023,1.807923 0.401961,3.592149 1.169271,5.229167 l 8.2083335,17.591145 c 0.541472,1.159599 1.704584,1.901618 2.984374,1.902344 1.279314,-9.33e-4 2.44279,-0.742021 2.984375,-1.901041 l 8.208333,-17.592448 c 0.767312,-1.637018 1.166916,-3.421244 1.169273,-5.229167 0,-6.827122 -5.534859,-12.361979 -12.361981,-12.361979 z m 0,6.180989 a 6.1808118,6.1808118 0 0 1 6.18099,6.18099 6.1808118,6.1808118 0 0 1 -6.18099,6.179687 6.1808118,6.1808118 0 0 1 -6.180989,-6.179687 6.1808118,6.1808118 0 0 1 6.180989,-6.18099 z" fill="#fff"/>
</svg>
