<svg width="40" height="60" xmlns="http://www.w3.org/2000/svg">
  <path d="m 13.304688,0 v 9.119792 c 0,1.206272 0.03202,2.250817 0.09635,3.135416 0.08042,0.868517 0.241818,1.600218 0.483073,2.195313 0.241255,0.57901 0.603429,1.038546 1.085937,1.376302 0.482509,0.337756 1.134162,0.58656 1.954428,0.747396 0.820264,0.144752 1.8488,0.217448 3.087239,0.217448 1.238439,0 2.268277,-0.0727 3.088542,-0.217448 0.820265,-0.160836 1.471918,-0.40964 1.954427,-0.747396 0.482509,-0.337756 0.836027,-0.797292 1.061198,-1.376302 0.241254,-0.595095 0.393998,-1.326796 0.458333,-2.195313 0.08042,-0.884599 0.121094,-1.929144 0.121094,-3.135416 V 0 h -4.197917 v 10.011719 c 0,0.772014 -0.02467,1.399001 -0.07292,1.88151 -0.03217,0.466426 -0.128227,0.821246 -0.289063,1.0625 -0.144753,0.241254 -0.386202,0.401353 -0.723958,0.481771 -0.337757,0.06433 -0.804646,0.09635 -1.39974,0.09635 -0.595095,0 -1.069337,-0.03202 -1.423177,-0.09635 -0.337756,-0.08042 -0.58656,-0.240517 -0.747396,-0.481771 -0.144752,-0.241254 -0.242114,-0.596074 -0.290364,-1.0625 -0.03217,-0.482509 -0.04818,-1.109496 -0.04818,-1.88151 V 0 Z M 20,22.915365 c -6.827122,0 -12.3619795,5.534857 -12.3619795,12.361979 0.0023,1.807923 0.401961,3.592149 1.169271,5.229167 l 8.2083345,17.591145 c 0.541471,1.159599 1.704583,1.901618 2.984373,1.902344 1.279314,-9.33e-4 2.44279,-0.742021 2.984375,-1.901041 l 8.208333,-17.592448 c 0.767312,-1.637018 1.166916,-3.421244 1.169273,-5.229167 0,-6.827122 -5.534859,-12.361979 -12.36198,-12.361979 z m 0,6.180989 a 6.1808118,6.1808118 0 0 1 6.180989,6.18099 6.1808118,6.1808118 0 0 1 -6.18099,6.179687 A 6.1808118,6.1808118 0 0 1 13.81901,35.277344 6.1808118,6.1808118 0 0 1 20,29.096354 Z" fill="#fff"/>
</svg>
