<svg width="60" height="90" xmlns="http://www.w3.org/2000/svg">
  <path d="M 19.957031 0 L 19.957031 13.679688 C 19.957031 15.489096 20.005061 17.055913 20.101562 18.382812 C 20.22219 19.685587 20.46429 20.783139 20.826172 21.675781 C 21.188054 22.544297 21.731315 23.2336 22.455078 23.740234 C 23.178841 24.246869 24.156321 24.620074 25.386719 24.861328 C 26.617116 25.078457 28.159919 25.1875 30.017578 25.1875 C 31.875237 25.1875 33.419993 25.078457 34.650391 24.861328 C 35.880788 24.620074 36.858268 24.246869 37.582031 23.740234 C 38.305795 23.2336 38.836072 22.544297 39.173828 21.675781 C 39.53571 20.783139 39.764826 19.685587 39.861328 18.382812 C 39.981955 17.055913 40.042969 15.489096 40.042969 13.679688 L 40.042969 0 L 33.746094 0 L 33.746094 15.017578 C 33.746094 16.175599 33.709095 17.11608 33.636719 17.839844 C 33.588468 18.539482 33.444379 19.071712 33.203125 19.433594 C 32.985996 19.795475 32.623822 20.035623 32.117188 20.15625 C 31.610553 20.252752 30.910219 20.300781 30.017578 20.300781 C 29.124936 20.300781 28.413572 20.252752 27.882812 20.15625 C 27.376178 20.035623 27.002973 19.795475 26.761719 19.433594 C 26.54459 19.071712 26.398548 18.539482 26.326172 17.839844 C 26.277919 17.11608 26.253906 16.175599 26.253906 15.017578 L 26.253906 0 L 19.957031 0 z M 30 34.373047 C 19.759316 34.373047 11.457031 42.675333 11.457031 52.916016 C 11.460531 55.6279 12.059973 58.30424 13.210938 60.759766 L 25.523438 87.146484 C 26.335647 88.885882 28.080315 89.998911 30 90 C 31.91897 89.9986 33.664185 88.886969 34.476562 87.148438 L 46.789062 60.759766 C 47.94003 58.30424 48.539436 55.6279 48.542969 52.916016 C 48.542969 42.675333 40.240683 34.373047 30 34.373047 z M 30 43.644531 A 9.2712177 9.2712177 0 0 1 39.271484 52.916016 A 9.2712177 9.2712177 0 0 1 30 62.185547 A 9.2712177 9.2712177 0 0 1 20.728516 52.916016 A 9.2712177 9.2712177 0 0 1 30 43.644531 z" fill="#fff"/>
</svg>
