<?xml version="1.0" encoding="UTF-8" standalone="no"?>
<svg
   width="40"
   height="60"
   version="1.1"
   id="svg1"
   sodipodi:docname="whelen-mod.svg"
   xml:space="preserve"
   inkscape:version="1.3 (0e150ed6c4, 2023-07-21)"
   xmlns:inkscape="http://www.inkscape.org/namespaces/inkscape"
   xmlns:sodipodi="http://sodipodi.sourceforge.net/DTD/sodipodi-0.dtd"
   xmlns="http://www.w3.org/2000/svg"
   xmlns:svg="http://www.w3.org/2000/svg"><defs
     id="defs1" /><sodipodi:namedview
     id="namedview1"
     pagecolor="#ffffff"
     bordercolor="#000000"
     borderopacity="0.25"
     inkscape:showpageshadow="2"
     inkscape:pageopacity="0.0"
     inkscape:pagecheckerboard="0"
     inkscape:deskcolor="#d1d1d1"
     showgrid="true"
     inkscape:zoom="5.9583333"
     inkscape:cx="7.8041958"
     inkscape:cy="27.104895"
     inkscape:window-width="1536"
     inkscape:window-height="953"
     inkscape:window-x="-8"
     inkscape:window-y="-8"
     inkscape:window-maximized="1"
     inkscape:current-layer="svg1"><inkscape:grid
       id="grid1"
       units="px"
       originx="0"
       originy="0"
       spacingx="1"
       spacingy="1"
       empcolor="#0099e5"
       empopacity="0.30196078"
       color="#0099e5"
       opacity="0.14901961"
       empspacing="10"
       dotted="false"
       gridanglex="30"
       gridanglez="30"
       visible="true" /></sodipodi:namedview><path
     id="path1"
     style="fill:#ffffff;stroke-width:87.2849"
     d="M 20 0 A 14.999999 1.6666667 0 0 0 5 1.6660156 L 5 2.1621094 C 5 2.1621094 5.740028 2.9925115 7.3085938 3.8925781 L 7.3085938 11.107422 C 5.740028 12.007489 5 12.83789 5 12.837891 L 5 13.333984 L 5 13.824219 C 5 13.824219 5.740028 14.65462 7.3085938 15.554688 L 7.3085938 22.769531 C 5.740028 23.669598 5 24.5 5 24.5 L 5 24.996094 L 5 25.490234 C 5 25.490234 5.740028 26.322591 7.3085938 27.222656 L 7.3085938 34.435547 C 5.740028 35.335614 5 36.167969 5 36.167969 L 5 36.662109 L 35 36.662109 L 35 36.167969 C 35 36.167969 34.259972 35.335614 32.691406 34.435547 L 32.691406 27.222656 C 34.259972 26.322591 35 25.490234 35 25.490234 L 35 24.996094 L 35 24.5 C 35 24.5 34.259972 23.669596 32.691406 22.769531 L 32.691406 15.554688 C 34.259972 14.65462 35 13.824219 35 13.824219 L 35 13.328125 L 35 12.837891 C 35 12.837891 34.259972 12.007489 32.691406 11.107422 L 32.691406 3.8925781 C 34.259972 2.9925115 35 2.1621094 35 2.1621094 L 35 1.6660156 A 14.999999 1.6666667 0 0 0 20 0 z M 9.9609375 5.0859375 C 11.670235 5.6710987 13.847111 6.1113281 16.539062 6.1113281 L 17.921875 8.8886719 L 16.539062 8.8886719 C 13.847111 8.8886719 11.670235 9.3289011 9.9609375 9.9140625 L 9.3261719 9.2753906 L 9.3261719 5.7246094 L 9.9609375 5.0859375 z M 30.039062 5.0859375 L 30.673828 5.7246094 L 30.673828 9.2753906 L 30.039062 9.9140625 C 28.329765 9.3289011 26.152889 8.8886719 23.460938 8.8886719 L 22.078125 8.8886719 L 23.460938 6.1113281 C 26.152889 6.1113281 28.329765 5.6710987 30.039062 5.0859375 z M 9.9609375 16.75 C 11.670235 17.33516 13.847111 17.773437 16.539062 17.773438 L 17.921875 20.550781 L 16.539062 20.550781 C 13.847111 20.550781 11.670235 20.99101 9.9609375 21.576172 L 9.3261719 20.9375 L 9.3261719 17.386719 L 9.9609375 16.75 z M 30.039062 16.75 L 30.673828 17.386719 L 30.673828 20.9375 L 30.039062 21.576172 C 28.329765 20.99101 26.152889 20.550781 23.460938 20.550781 L 22.078125 20.550781 L 23.460938 17.773438 C 26.152889 17.773438 28.329765 17.33516 30.039062 16.75 z M 9.9609375 28.416016 C 11.670235 29.001176 13.847111 29.439453 16.539062 29.439453 L 17.921875 32.21875 L 16.539062 32.21875 C 13.847111 32.21875 11.670235 32.657026 9.9609375 33.242188 L 9.3261719 32.603516 L 9.3261719 29.054688 L 9.9609375 28.416016 z M 30.039062 28.416016 L 30.673828 29.054688 L 30.673828 32.603516 L 30.039062 33.242188 C 28.329765 32.657026 26.152889 32.21875 23.460938 32.21875 L 22.078125 32.21875 L 23.460938 29.439453 C 26.152889 29.439453 28.329765 29.001176 30.039062 28.416016 z M 5 36.666016 L 5 37.162109 C 5 37.162109 5.740028 37.992511 7.3085938 38.892578 L 7.3085938 46.107422 C 5.740028 47.007489 5 47.837891 5 47.837891 L 5 48.333984 A 14.999999 1.6666667 0 0 0 14 49.855469 L 14 52 L 17 52 L 17 60 L 23 60 L 23 52 L 26 52 L 26 49.859375 A 14.999999 1.6666667 0 0 0 35 48.333984 L 35 47.837891 C 35 47.837891 34.259972 47.007489 32.691406 46.107422 L 32.691406 38.892578 C 34.259972 37.992511 35 37.162109 35 37.162109 L 35 36.666016 L 5 36.666016 z M 9.9609375 40.085938 C 11.670235 40.671098 13.847111 41.111328 16.539062 41.111328 L 17.921875 43.888672 L 16.539062 43.888672 C 13.847111 43.888672 11.670235 44.328902 9.9609375 44.914062 L 9.3261719 44.275391 L 9.3261719 40.724609 L 9.9609375 40.085938 z M 30.039062 40.085938 L 30.673828 40.724609 L 30.673828 44.275391 L 30.039062 44.914062 C 28.329765 44.328902 26.152889 43.888672 23.460938 43.888672 L 22.078125 43.888672 L 23.460938 41.111328 C 26.152889 41.111328 28.329765 40.671098 30.039062 40.085938 z " /></svg>
