<svg width="40" height="60" xml:space="preserve" xmlns="http://www.w3.org/2000/svg">
  <path d="M 20 0 A 14.999999 1.6666667 0 0 0 5 1.6660156 L 5 2.1621094 C 5 2.1621094 5.7400325 2.9925142 7.3085938 3.8925781 L 7.3085938 11.107422 C 5.7400325 12.007486 5 12.83789 5 12.837891 L 5 13.333984 L 5 13.824219 C 5 13.824219 5.7400325 14.65462 7.3085938 15.554688 L 7.3085938 22.769531 C 5.7400325 23.669595 5 24.5 5 24.5 L 5 24.996094 L 5 25.490234 C 5 25.490234 5.7400325 26.322594 7.3085938 27.222656 L 7.3085938 34.435547 C 5.7400325 35.335611 5 36.167969 5 36.167969 L 5 36.662109 L 35 36.662109 L 35 36.167969 C 35 36.167969 34.259969 35.335611 32.691406 34.435547 L 32.691406 27.222656 C 34.259969 26.322594 35 25.490234 35 25.490234 L 35 24.996094 L 35 24.5 C 35 24.5 34.259969 23.669593 32.691406 22.769531 L 32.691406 15.554688 C 34.259969 14.65462 35 13.824219 35 13.824219 L 35 13.328125 L 35 12.837891 C 35 12.837891 34.259969 12.007486 32.691406 11.107422 L 32.691406 3.8925781 C 34.259969 2.9925142 35 2.1621094 35 2.1621094 L 35 1.6660156 A 14.999999 1.6666667 0 0 0 20 0 z M 9.9609375 5.0859375 C 11.670229 5.6710969 13.84712 6.1113281 16.539062 6.1113281 L 17.921875 8.8886719 L 16.539062 8.8886719 C 13.84712 8.8886719 11.670229 9.3289029 9.9609375 9.9140625 L 9.3261719 9.2753906 L 9.3261719 5.7246094 L 9.9609375 5.0859375 z M 30.039062 5.0859375 L 30.673828 5.7246094 L 30.673828 9.2753906 L 30.039062 9.9140625 C 28.329771 9.3289029 26.15288 8.8886719 23.460938 8.8886719 L 22.078125 8.8886719 L 23.460938 6.1113281 C 26.15288 6.1113281 28.329771 5.6710969 30.039062 5.0859375 z M 9.9609375 16.75 C 11.670229 17.335157 13.84712 17.773437 16.539062 17.773438 L 17.921875 20.550781 L 16.539062 20.550781 C 13.84712 20.550781 11.670229 20.99101 9.9609375 21.576172 L 9.3261719 20.9375 L 9.3261719 17.386719 L 9.9609375 16.75 z M 30.039062 16.75 L 30.673828 17.386719 L 30.673828 20.9375 L 30.039062 21.576172 C 28.329771 20.99101 26.15288 20.550781 23.460938 20.550781 L 22.078125 20.550781 L 23.460938 17.773438 C 26.15288 17.773438 28.329771 17.335157 30.039062 16.75 z M 9.9609375 28.416016 C 11.670229 29.001173 13.84712 29.439453 16.539062 29.439453 L 17.921875 32.21875 L 16.539062 32.21875 C 13.84712 32.21875 11.670229 32.657026 9.9609375 33.242188 L 9.3261719 32.603516 L 9.3261719 29.054688 L 9.9609375 28.416016 z M 30.039062 28.416016 L 30.673828 29.054688 L 30.673828 32.603516 L 30.039062 33.242188 C 28.329771 32.657026 26.15288 32.21875 23.460938 32.21875 L 22.078125 32.21875 L 23.460938 29.439453 C 26.15288 29.439453 28.329771 29.001173 30.039062 28.416016 z M 5 36.666016 L 5 37.162109 C 5 37.162109 5.7400325 37.992514 7.3085938 38.892578 L 7.3085938 46.107422 C 5.7400325 47.007486 5 47.837891 5 47.837891 L 5 48.333984 A 14.999999 1.6666667 0 0 0 14 49.855469 L 14 51 L 17.5 51 L 17.5 60 L 22.5 60 L 22.5 51 L 26 51 L 26 49.859375 A 14.999999 1.6666667 0 0 0 35 48.333984 L 35 47.837891 C 35 47.837891 34.259969 47.007486 32.691406 46.107422 L 32.691406 38.892578 C 34.259969 37.992514 35 37.162109 35 37.162109 L 35 36.666016 L 5 36.666016 z M 9.9609375 40.085938 C 11.670229 40.671095 13.84712 41.111328 16.539062 41.111328 L 17.921875 43.888672 L 16.539062 43.888672 C 13.84712 43.888672 11.670229 44.328905 9.9609375 44.914062 L 9.3261719 44.275391 L 9.3261719 40.724609 L 9.9609375 40.085938 z M 30.039062 40.085938 L 30.673828 40.724609 L 30.673828 44.275391 L 30.039062 44.914062 C 28.329771 44.328905 26.15288 43.888672 23.460938 43.888672 L 22.078125 43.888672 L 23.460938 41.111328 C 26.15288 41.111328 28.329771 40.671095 30.039062 40.085938 z" fill="#fff"/>
</svg>
