<svg width="40" height="60" xml:space="preserve" xmlns="http://www.w3.org/2000/svg">
  <path d="M 20 0 A 13 1.5 0 0 0 7 1.5 A 13 1.5 0 0 0 7.2539062 1.78125 C 7.5524531 2.0959037 8.1321278 2.6501153 9 3.2695312 L 9 10.730469 C 8.1321279 11.349883 7.5524526 11.904096 7.2539062 12.21875 A 13 1.5 0 0 0 7 12.5 L 7 13.5 A 13 1.5 0 0 0 7.2539062 13.78125 C 7.5524527 14.095904 8.1321279 14.650117 9 15.269531 L 9 22.708984 C 8.1321288 23.328401 7.5524524 23.882612 7.2539062 24.197266 A 13 1.5 0 0 0 7 24.478516 L 33 24.478516 A 13 1.5 0 0 0 32.746094 24.197266 C 32.447547 23.882612 31.867871 23.328401 31 22.708984 L 31 15.269531 C 31.867872 14.650117 32.447547 14.095904 32.746094 13.78125 A 13 1.5 0 0 0 33 13.5 L 33 12.5 A 13 1.5 0 0 0 32.746094 12.21875 C 32.447547 11.904096 31.867872 11.349883 31 10.730469 L 31 3.2695312 C 31.867872 2.6501153 32.447546 2.0959037 32.746094 1.78125 A 13 1.5 0 0 0 33 1.5 A 13 1.5 0 0 0 20 0 z M 11 4.4785156 C 12.319293 5.1504515 13.975931 5.7742719 16 6.1464844 L 16 7.8554688 C 13.978224 8.2268808 12.318506 8.8499499 11 9.5214844 L 11 4.4785156 z M 29 4.4785156 L 29 9.5214844 C 27.681494 8.8499499 26.021776 8.2268808 24 7.8554688 L 24 6.1464844 C 26.024069 5.7742719 27.680707 5.1504515 29 4.4785156 z M 11 16.478516 C 12.318506 17.150049 13.978224 17.773121 16 18.144531 L 16 19.833984 C 13.978223 20.205397 12.318505 20.828467 11 21.5 L 11 16.478516 z M 29 16.478516 L 29 21.5 C 27.681495 20.828467 26.021777 20.205397 24 19.833984 L 24 18.144531 C 26.021776 17.773121 27.681494 17.150049 29 16.478516 z M 7 24.5 L 7 25.5 L 33 25.5 L 33 24.5 L 7 24.5 z M 7 25.523438 A 13 1.5 0 0 0 7.2539062 25.804688 C 7.5524527 26.119339 8.1321279 26.673552 9 27.292969 L 9 34.732422 C 8.1321288 35.351836 7.5524524 35.906049 7.2539062 36.220703 A 13 1.5 0 0 0 7 36.501953 L 7 37.5 L 33 37.5 L 33 36.501953 A 13 1.5 0 0 0 33 36.5 A 13 1.5 0 0 0 32.746094 36.220703 C 32.447547 35.906049 31.867871 35.351836 31 34.732422 L 31 27.292969 C 31.867872 26.673552 32.447547 26.119339 32.746094 25.804688 A 13 1.5 0 0 0 33 25.523438 L 7 25.523438 z M 11 28.501953 C 12.318506 29.173487 13.978224 29.796556 16 30.167969 L 16 31.857422 C 13.978223 32.228835 12.318505 32.851902 11 33.523438 L 11 28.501953 z M 29 28.501953 L 29 33.523438 C 27.681495 32.851902 26.021777 32.228835 24 31.857422 L 24 30.167969 C 26.021776 29.796556 27.681494 29.173487 29 28.501953 z M 7 37.521484 A 13 1.5 0 0 0 7.2539062 37.802734 C 7.5524527 38.117388 8.1321279 38.671599 9 39.291016 L 9 46.730469 C 8.988664 46.738569 8.979988 46.745836 8.96875 46.753906 C 8.7795301 46.889748 8.6063503 47.02105 8.4453125 47.148438 C 8.4118925 47.174816 8.3798902 47.198679 8.3476562 47.224609 C 8.1894816 47.352142 8.045418 47.473754 7.9160156 47.587891 L 7.9140625 47.589844 L 7.9121094 47.591797 C 7.6265118 47.843828 7.4018649 48.062809 7.2539062 48.21875 A 13 1.5 0 0 0 7 48.5 A 13 1.5 0 0 0 15 49.882812 L 15 51.5 L 17 51.5 L 17 60 L 23 60 L 23 51.5 L 25 51.5 L 25 49.882812 A 13 1.5 0 0 0 33 48.5 A 13 1.5 0 0 0 32.746094 48.21875 C 32.598135 48.062809 32.371527 47.841969 32.085938 47.589844 L 32.083984 47.587891 C 31.954584 47.473754 31.810519 47.352142 31.652344 47.224609 C 31.620114 47.198679 31.588106 47.174816 31.554688 47.148438 C 31.384422 47.013758 31.20185 46.874533 31 46.730469 L 31 39.291016 C 31.867872 38.671599 32.447547 38.117388 32.746094 37.802734 A 13 1.5 0 0 0 33 37.521484 L 7 37.521484 z M 11 40.5 C 12.318506 41.171534 13.978224 41.794603 16 42.166016 L 16 43.853516 C 15.085685 44.02165 14.246657 44.241964 13.478516 44.494141 C 13.472716 44.496041 13.466776 44.498 13.460938 44.5 C 12.868775 44.695064 12.32157 44.909694 11.814453 45.134766 C 11.70988 45.181176 11.612726 45.230086 11.511719 45.277344 C 11.340384 45.357494 11.168932 45.435627 11.007812 45.517578 C 11.005314 45.518878 11.0025 45.520184 11 45.521484 L 11 40.5 z M 29 40.5 L 29 45.521484 C 28.836385 45.438153 28.662451 45.358821 28.488281 45.277344 C 28.387274 45.230088 28.29012 45.18118 28.185547 45.134766 C 27.016544 44.615932 25.627137 44.152734 24 43.853516 L 24 42.166016 C 26.021776 41.794603 27.681494 41.171534 29 40.5 z" fill="#fff"/>
</svg>
