<svg width="60" height="90" xml:space="preserve" xmlns="http://www.w3.org/2000/svg">
  <path d="M 30,0 C 13.431458,0 0,13.431458 0,30 0.00571609,34.387594 0.97377637,38.72053 2.8359375,42.693359 L 22.755861,85.384766 C 24.069945,88.198961 26.894116,89.998238 30,90 c 3.104728,-0.0022 5.927833,-1.800487 7.242188,-4.613281 l 19.92187,-42.69336 C 59.026223,38.72053 59.994284,34.387594 60,30 60,13.431458 46.568542,0 30,0 Z" fill="#4e7b9d"/>
  <circle cx="30" cy="30" r="15" fill="#fff"/>
  <path d="m 30,50.993574 c -1.18287,0 -2.378819,0.387503 -3.304216,1.206974 -0.925396,0.81947 -1.535487,2.087896 -1.535487,3.614469 v 3.856507 h -0.654365 a 2.1975376,2.513743 0 0 0 -2.197951,2.512378 v 7.541974 a 2.1975376,2.513743 0 0 0 2.197951,2.513991 h 10.988137 a 2.1975376,2.513743 0 0 0 2.19795,-2.513991 v -7.541974 a 2.1975376,2.513743 0 0 0 -2.19795,-2.512378 h -0.654365 v -3.856507 c 0,-1.526573 -0.610092,-2.794999 -1.535489,-3.614469 C 32.37882,51.381077 31.182869,50.993574 30,50.993574 Z m 0,1.928254 c 0.752736,0 1.491853,0.255217 2.018162,0.721279 0.526309,0.466066 0.885984,1.127414 0.885984,2.17191 v 3.856507 h -5.808292 v -3.856507 c 0,-1.044496 0.359674,-1.705844 0.885983,-2.17191 C 28.508146,53.177045 29.247264,52.921828 30,52.921828 Z" fill="#fff"/>
</svg>
